<?xml version="1.0" encoding="UTF-8"?>
<svg width="34px" height="34px" viewBox="0 0 34 34" version="1.1" xmlns="http://www.w3.org/2000/svg" xmlns:xlink="http://www.w3.org/1999/xlink">
    <!-- Generator: Sketch 45.2 (43514) - http://www.bohemiancoding.com/sketch -->
    <title>i-kitchen</title>
    <desc>Created with Sketch.</desc>
    <defs></defs>
    <g id="icons" stroke="none" stroke-width="1" fill="none" fill-rule="evenodd" fill-opacity="0.73194067">
        <g id="Desktop" transform="translate(-100.000000, -20.000000)" fill-rule="nonzero" fill="#000000">
            <g id="i-kitchen" transform="translate(100.000000, 20.000000)">
                <path d="M33.3846491,0.0384615773 L22.6154075,0.0384615773 L0.461538928,0.0384615773 C0.269231041,0.0384615773 0.0769231547,0.192307887 0.0769231547,0.423077351 L0.0769231547,7.07693023 C0.0769231547,7.26923812 0.230769464,7.461546 0.461538928,7.461546 L22.5769459,7.461546 L33.3461875,7.461546 C33.5384954,7.461546 33.7308033,7.30769969 33.7308033,7.07693023 L33.7308033,0.423077351 C33.7308033,0.192307887 33.576957,0.0384615773 33.3846491,0.0384615773 Z M22.2307917,6.69231446 L0.846154701,6.69231446 L0.846154701,0.807693124 L22.2307917,0.807693124 L22.2307917,6.69231446 Z M33.0000334,6.69231446 L22.9615617,6.69231446 L22.9615617,0.807693124 L33.0000334,0.807693124 L33.0000334,6.69231446 L33.0000334,6.69231446 Z" id="Shape"></path>
                <g id="Group" transform="translate(0.000000, 15.384631)">
                    <path d="M33.3846491,0.0769231547 L22.6154075,0.0769231547 L11.8461658,0.0769231547 L0.461538928,0.0769231547 C0.269231041,0.0769231547 0.0769231547,0.230769464 0.0769231547,0.461538928 L0.0769231547,4.38461982 L0.0769231547,4.42308139 L0.0769231547,8.3077007 L0.0769231547,8.34616228 L0.0769231547,12.2307816 L0.0769231547,12.3077047 L0.0769231547,16.2307856 L0.0769231547,18.2307877 C0.0769231547,18.4230955 0.230769464,18.6154034 0.461538928,18.6154034 L33.3461875,18.6154034 C33.5384954,18.6154034 33.7308033,18.4615571 33.7308033,18.2307877 L33.7308033,16.2307856 L33.7308033,0.461538928 C33.7308033,0.230769464 33.576957,0.0769231547 33.3846491,0.0769231547 Z M12.19232,12.3077047 L12.19232,12.2692432 L12.19232,8.38462386 L12.19232,8.34616228 L12.19232,4.42308139 L12.19232,4.38461982 L12.19232,0.807693124 L22.2307917,0.807693124 L22.2307917,15.8461699 L12.19232,15.8461699 L12.19232,12.3077047 Z M0.846154701,0.807693124 L11.46155,0.807693124 L11.46155,4.00000404 L0.846154701,4.00000404 L0.846154701,0.807693124 Z M0.846154701,4.76923559 L11.46155,4.76923559 L11.46155,7.96154651 L0.846154701,7.96154651 L0.846154701,4.76923559 Z M0.846154701,8.69231648 L11.46155,8.69231648 L11.46155,11.8846274 L0.846154701,11.8846274 L0.846154701,8.69231648 Z M0.846154701,12.6153974 L11.46155,12.6153974 L11.46155,15.8461699 L0.846154701,15.8461699 L0.846154701,12.6153974 Z M33.0000334,17.8461719 L0.846154701,17.8461719 L0.846154701,16.6154014 L11.8077042,16.6154014 L22.5769459,16.6154014 L32.9615718,16.6154014 L32.9615718,17.8461719 L33.0000334,17.8461719 Z M33.0000334,15.8461699 L22.9615617,15.8461699 L22.9615617,0.807693124 L33.0000334,0.807693124 L33.0000334,15.8461699 L33.0000334,15.8461699 Z" id="Shape"></path>
                    <rect id="Rectangle-path" x="24.4615632" y="3.92308089" width="1" height="3.46154196"></rect>
                    <rect id="Rectangle-path" x="20.0000202" y="3.92308089" width="1" height="3.46154196"></rect>
                </g>
            </g>
        </g>
    </g>
</svg>