<?xml version="1.0" encoding="UTF-8"?>
<svg width="27px" height="35px" viewBox="0 0 27 35" version="1.1" xmlns="http://www.w3.org/2000/svg" xmlns:xlink="http://www.w3.org/1999/xlink">
    <!-- Generator: Sketch 45.2 (43514) - http://www.bohemiancoding.com/sketch -->
    <title>i-washer</title>
    <desc>Created with Sketch.</desc>
    <defs></defs>
    <g id="icons" stroke="none" stroke-width="1" fill="none" fill-rule="evenodd" fill-opacity="0.73194067">
        <g id="Desktop" transform="translate(-321.000000, -20.000000)" fill-rule="nonzero" fill="#000000">
            <g id="i-washer" transform="translate(321.000000, 20.000000)">
                <path d="M25.982783,0 L0.584479782,0 C0.318807154,0 0.0531345256,0.212538103 0.0531345256,0.531345256 L0.0531345256,6.2167395 L0.0531345256,33.4747511 C0.0531345256,33.7404238 0.265672628,34.0060964 0.584479782,34.0060964 L25.982783,34.0060964 C26.2484557,34.0060964 26.5141283,33.7935583 26.5141283,33.4747511 L26.5141283,6.2167395 L26.5141283,0.531345256 C26.5141283,0.265672628 26.2484557,0 25.982783,0 Z M25.4514378,32.9434059 L1.11582504,32.9434059 L1.11582504,6.74808475 L25.4514378,6.74808475 L25.4514378,32.9434059 Z M25.4514378,5.68539424 L1.11582504,5.68539424 L1.11582504,1.06269051 L25.4514378,1.06269051 L25.4514378,5.68539424 Z" id="Shape"></path>
                <path d="M13.2836314,29.5427962 C18.6502185,29.5427962 23.0072496,25.1857651 23.0072496,19.8191781 C23.0072496,14.452591 18.6502185,10.0955599 13.2836314,10.0955599 C7.91704432,10.0955599 3.56001322,14.452591 3.56001322,19.8191781 C3.56001322,25.1857651 7.91704432,29.5427962 13.2836314,29.5427962 Z M13.2836314,11.1582504 C18.0657387,11.1582504 21.9976936,15.0370708 21.9976936,19.8723126 C21.9976936,24.7075544 18.0657387,28.5332403 13.2836314,28.5332403 C8.5015241,28.5332403 4.5695692,24.6544199 4.5695692,19.8191781 C4.5695692,14.9839362 8.5015241,11.1582504 13.2836314,11.1582504 Z" id="Shape"></path>
                <path d="M8.12958242,23.6448639 C9.24540746,24.973227 10.8925778,25.7702449 12.6460171,25.7702449 C15.8872232,25.7702449 18.5439494,23.1135186 18.5439494,19.8723126 C18.5439494,16.6311065 15.8872232,13.9743802 12.6460171,13.9743802 C10.8925778,13.9743802 9.24540746,14.7713981 8.12958242,16.0997613 C7.97017884,16.3122994 7.97017884,16.577972 8.12958242,16.7373756 C8.87346578,17.587528 9.24540746,18.703353 9.24540746,19.8723126 C9.24540746,20.9881376 8.82033125,22.1039627 8.12958242,23.0072496 C7.97017884,23.1666532 7.97017884,23.4323258 8.12958242,23.6448639 Z M10.308098,19.8191781 C10.308098,18.597084 9.93615629,17.3749899 9.19227293,16.3654339 C10.0955599,15.462147 11.3707885,14.9308017 12.6460171,14.9308017 C15.3558779,14.9308017 17.5343935,17.1093173 17.5343935,19.8191781 C17.5343935,22.5290389 15.3558779,24.7075544 12.6460171,24.7075544 C11.317654,24.7075544 10.0955599,24.1762092 9.19227293,23.2729222 C9.88302177,22.2633662 10.308098,21.0944067 10.308098,19.8191781 Z" id="Shape"></path>
            </g>
        </g>
    </g>
</svg>