<?xml version="1.0" encoding="UTF-8"?>
<svg width="37px" height="35px" viewBox="0 0 37 35" version="1.1" xmlns="http://www.w3.org/2000/svg" xmlns:xlink="http://www.w3.org/1999/xlink">
    <!-- Generator: Sketch 45.2 (43514) - http://www.bohemiancoding.com/sketch -->
    <title>i-heating</title>
    <desc>Created with Sketch.</desc>
    <defs></defs>
    <g id="icons" stroke="none" stroke-width="1" fill="none" fill-rule="evenodd" fill-opacity="0.73194067">
        <g id="Desktop" transform="translate(-249.000000, -20.000000)" fill-rule="nonzero" fill="#000000">
            <g id="i-heating" transform="translate(249.000000, 20.000000)">
                <path d="M8.48625239,34.0252119 L4.88079512,34.0252119 C4.19968329,34.0252119 3.64555841,33.471087 3.64555841,32.7899751 L3.64555841,1.23462912 C3.64555841,0.554124879 4.19968329,0 4.88079512,0 L8.48625239,0 C9.16736422,0 9.7214891,0.554124879 9.7214891,1.23462912 L9.7214891,32.7899751 C9.7214891,33.471087 9.16736422,34.0252119 8.48625239,34.0252119 L8.48625239,34.0252119 Z M4.88079512,1.21518614 L4.86074455,32.7899751 L8.48625239,32.8100257 C8.49718907,32.8100257 8.50630296,32.8009118 8.50630296,32.7899751 L8.50630296,1.23462912 L4.88079512,1.21518614 L4.88079512,1.21518614 Z" id="Fill-33"></path>
                <path d="M16.3849623,34.0252119 L12.779505,34.0252119 C12.0983932,34.0252119 11.5442683,33.471087 11.5442683,32.7899751 L11.5442683,1.23462912 C11.5442683,0.554124879 12.0983932,0 12.779505,0 L16.3849623,0 C17.0660741,0 17.620199,0.554124879 17.620199,1.23462912 L17.620199,32.7899751 C17.620199,33.471087 17.0660741,34.0252119 16.3849623,34.0252119 L16.3849623,34.0252119 Z M12.779505,1.21518614 L12.7594544,32.7899751 L16.3849623,32.8100257 C16.395899,32.8100257 16.4050129,32.8009118 16.4050129,32.7899751 L16.4050129,1.23462912 L12.779505,1.21518614 L12.779505,1.21518614 Z" id="Fill-34"></path>
                <path d="M24.2836722,34.0252119 L20.6782149,34.0252119 C19.9971031,34.0252119 19.4429782,33.471087 19.4429782,32.7899751 L19.4429782,1.23462912 C19.4429782,0.554124879 19.9971031,0 20.6782149,0 L24.2836722,0 C24.964784,0 25.5189089,0.554124879 25.5189089,1.23462912 L25.5189089,32.7899751 C25.5189089,33.471087 24.964784,34.0252119 24.2836722,34.0252119 L24.2836722,34.0252119 Z M20.6782149,1.21518614 L20.6581643,32.7899751 L24.2836722,32.8100257 C24.2946089,32.8100257 24.3037228,32.8009118 24.3037228,32.7899751 L24.3037228,1.23462912 L20.6782149,1.21518614 L20.6782149,1.21518614 Z" id="Fill-35"></path>
                <path d="M32.1823821,34.0252119 L28.5769248,34.0252119 C27.895813,34.0252119 27.3416881,33.471087 27.3416881,32.7899751 L27.3416881,1.23462912 C27.3416881,0.554124879 27.895813,0 28.5769248,0 L32.1823821,0 C32.8634939,0 33.4176188,0.554124879 33.4176188,1.23462912 L33.4176188,32.7899751 C33.4176188,33.471087 32.8634939,34.0252119 32.1823821,34.0252119 L32.1823821,34.0252119 Z M28.5769248,1.21518614 L28.5568742,32.7899751 L32.1823821,32.8100257 C32.1933188,32.8100257 32.2024326,32.8009118 32.2024326,32.7899751 L32.2024326,1.23462912 L28.5769248,1.21518614 L28.5769248,1.21518614 Z" id="Fill-36"></path>
                <path d="M0,3.03796534 L4.86074455,3.03796534 L4.86074455,7.89870989 L0,7.89870989 L0,3.03796534 Z M1.21518614,6.68352376 L3.64555841,6.68352376 L3.64555841,4.25315148 L1.21518614,4.25315148 L1.21518614,6.68352376 Z" id="Fill-37"></path>
                <path d="M8.50630296,3.03796534 L12.7594544,3.03796534 L12.7594544,7.89870989 L8.50630296,7.89870989 L8.50630296,3.03796534 Z M9.7214891,6.68352376 L11.5442683,6.68352376 L11.5442683,4.25315148 L9.7214891,4.25315148 L9.7214891,6.68352376 Z" id="Fill-38"></path>
                <path d="M16.4050129,3.03796534 L20.6581643,3.03796534 L20.6581643,7.89870989 L16.4050129,7.89870989 L16.4050129,3.03796534 Z M17.620199,6.68352376 L19.4429782,6.68352376 L19.4429782,4.25315148 L17.620199,4.25315148 L17.620199,6.68352376 Z" id="Fill-39"></path>
                <path d="M24.3037228,3.03796534 L28.5568742,3.03796534 L28.5568742,7.89870989 L24.3037228,7.89870989 L24.3037228,3.03796534 Z M25.5189089,6.68352376 L27.3416881,6.68352376 L27.3416881,4.25315148 L25.5189089,4.25315148 L25.5189089,6.68352376 Z" id="Fill-40"></path>
                <path d="M32.2024326,3.03796534 L36.4555841,3.03796534 L36.4555841,7.89870989 L32.2024326,7.89870989 L32.2024326,3.03796534 Z M33.4176188,6.68352376 L35.240398,6.68352376 L35.240398,4.25315148 L33.4176188,4.25315148 L33.4176188,6.68352376 Z" id="Fill-41"></path>
                <path d="M8.50630296,26.126502 L12.7594544,26.126502 L12.7594544,30.9872465 L8.50630296,30.9872465 L8.50630296,26.126502 Z M9.7214891,29.7720604 L11.5442683,29.7720604 L11.5442683,27.3416881 L9.7214891,27.3416881 L9.7214891,29.7720604 Z" id="Fill-42"></path>
                <path d="M16.4050129,26.126502 L20.6581643,26.126502 L20.6581643,30.9872465 L16.4050129,30.9872465 L16.4050129,26.126502 Z M17.620199,29.7720604 L19.4429782,29.7720604 L19.4429782,27.3416881 L17.620199,27.3416881 L17.620199,29.7720604 Z" id="Fill-43"></path>
                <path d="M24.3037228,26.126502 L28.5568742,26.126502 L28.5568742,30.9872465 L24.3037228,30.9872465 L24.3037228,26.126502 Z M25.5189089,29.7720604 L27.3416881,29.7720604 L27.3416881,27.3416881 L25.5189089,27.3416881 L25.5189089,29.7720604 Z" id="Fill-44"></path>
                <path d="M32.2024326,26.126502 L36.4555841,26.126502 L36.4555841,30.9872465 L32.2024326,30.9872465 L32.2024326,26.126502 Z M33.4176188,29.7720604 L35.240398,29.7720604 L35.240398,27.3416881 L33.4176188,27.3416881 L33.4176188,29.7720604 Z" id="Fill-45"></path>
                <path d="M0.607593069,9.7214891 C0.272201695,9.7214891 0,9.44928741 0,9.11389603 L0,1.82277921 C0,1.48738783 0.272201695,1.21518614 0.607593069,1.21518614 C0.942984443,1.21518614 1.21518614,1.48738783 1.21518614,1.82277921 L1.21518614,9.11389603 C1.21518614,9.44928741 0.942984443,9.7214891 0.607593069,9.7214891" id="Fill-46"></path>
            </g>
        </g>
    </g>
</svg>