<?xml version="1.0" encoding="UTF-8"?>
<svg width="46px" height="46px" viewBox="0 0 46 46" version="1.1" xmlns="http://www.w3.org/2000/svg" xmlns:xlink="http://www.w3.org/1999/xlink">
    <!-- Generator: Sketch 45 (43475) - http://www.bohemiancoding.com/sketch -->
    <title>1499028885_web-and-business-outline-3-20</title>
    <desc>Created with Sketch.</desc>
    <defs></defs>
    <g id="How-our-process-works" stroke="none" stroke-width="1" fill="none" fill-rule="evenodd" fill-opacity="0.73194067">
        <g id="Desktop-HD-Copy-5" transform="translate(-736.000000, -898.000000)" fill-rule="nonzero" fill="#000000">
            <g id="Group-Copy-2" transform="translate(736.000000, 898.000000)">
                <g id="1499028885_web-and-business-outline-3-20">
                    <g id="Layer_2">
                        <path d="M10.5845283,6.0483019 L0,6.0483019 L0,5.29226416 C0,2.34371698 2.34371698,0 5.29226416,0 C8.24081133,0 10.5845283,2.34371698 10.5845283,5.29226416 L10.5845283,6.0483019 Z M1.58767925,4.53622642 L8.99684907,4.53622642 C8.6188302,2.79733963 7.10675473,1.51207547 5.29226416,1.51207547 C3.47777359,1.51207547 1.96569812,2.79733963 1.58767925,4.53622642 Z" id="Shape"></path>
                        <path d="M40.0700001,45.3622642 L14.364717,45.3622642 L14.364717,43.8501887 C16.4816227,43.8501887 18.1449057,42.1869057 18.1449057,40.0700001 L18.1449057,39.3139623 L45.3622642,39.3139623 L45.3622642,40.0700001 C45.3622642,43.0185472 43.0185472,45.3622642 40.0700001,45.3622642 Z M18.0693019,43.8501887 L40.0700001,43.8501887 C41.8844906,43.8501887 43.3965661,42.5649246 43.774585,40.8260378 L19.5813774,40.8260378 C19.4301698,42.0356982 18.9009434,43.0185472 18.0693019,43.8501887 Z" id="Shape"></path>
                        <path d="M34.7777359,36.9702453 L34.7777359,39.3139623 L18.1449057,39.3139623 L18.1449057,40.0700001 C18.1449057,42.1869057 16.4816227,43.8501887 14.364717,43.8501887 C12.2478113,43.8501887 10.5845283,42.1869057 10.5845283,40.0700001 L10.5845283,5.29226416 C10.5845283,3.78018868 9.97969813,2.49492453 8.99684907,1.51207547 L30.9975472,1.51207547 C33.1144529,1.51207547 34.7777359,3.1753585 34.7777359,5.29226416 L34.7777359,37.9523963 C35.3069623,37.9523963 35.760585,38.028 36.2898114,38.1792076 L36.2898114,5.29226416 C36.2898114,2.34371698 33.9460944,0 30.9975472,0 L5.29226416,0 L5.29226416,1.51207547 C7.40916982,1.51207547 9.07245284,3.1753585 9.07245284,5.29226416 L9.07245284,40.0700001 C9.07245284,43.0185472 11.4161698,45.3622642 14.364717,45.3622642 C17.0108491,45.3622642 19.2033585,43.3965661 19.5813774,40.8260378 L36.2898114,40.8260378 L36.2898114,36.8190378 C35.760585,36.8946416 35.3069623,36.9702453 34.7777359,36.9702453 Z" id="Shape"></path>
                        <rect id="Rectangle-path" x="13.6086793" y="5.29226416" width="18.1449057" height="1.51207547"></rect>
                        <rect id="Rectangle-path" x="13.6086793" y="9.82849058" width="18.1449057" height="1.51207547"></rect>
                        <rect id="Rectangle-path" x="13.6086793" y="14.364717" width="18.1449057" height="1.51207547"></rect>
                        <rect id="Rectangle-path" x="13.6086793" y="18.9009434" width="18.1449057" height="1.51207547"></rect>
                        <rect id="Rectangle-path" x="13.6086793" y="23.4371698" width="18.1449057" height="1.51207547"></rect>
                        <rect id="Rectangle-path" x="13.6086793" y="27.9733963" width="18.1449057" height="1.51207547"></rect>
                        <rect id="Rectangle-path" x="13.6086793" y="32.5096227" width="18.1449057" height="1.51207547"></rect>
                    </g>
                </g>
            </g>
        </g>
    </g>
</svg>