<?xml version="1.0" ?><svg height="24" viewBox="0 0 24 24" width="24" xmlns="http://www.w3.org/2000/svg"><title/><g data-name="Layer 2" id="Layer_2"><g data-name="Layer 1" id="Layer_1-2"><line fill="none" stroke="#000" stroke-linecap="round" stroke-linejoin="round" x1="2.71301" x2="3.87015" y1="6.55131" y2="7.45877"/><line fill="none" stroke="#000" stroke-linecap="round" stroke-linejoin="round" x1="0.50631" x2="1.96621" y1="14.4524" y2="14.27585"/><line fill="none" stroke="#000" stroke-linecap="round" stroke-linejoin="round" x1="1.80874" x2="3.08994" y1="18.4265" y2="17.70471"/><line fill="none" stroke="#000" stroke-linecap="round" stroke-linejoin="round" x1="0.82385" x2="2.24018" y1="10.28238" y2="10.67795"/><path d="M22.79322,9.41865a5.45764,5.45764,0,0,0-.78462-6.23129A7.41484,7.41484,0,0,0,15.86816.57892a5.45756,5.45756,0,0,0-5.02952,3.76144A13.27633,13.27633,0,0,1,6.1093,10.54964a2.47726,2.47726,0,0,0-.47017,3.6274,17.03454,17.03454,0,0,0,13.684,5.81326,2.47738,2.47738,0,0,0,2.28463-2.85679A13.27618,13.27618,0,0,1,22.79322,9.41865Z" fill="none" stroke="#000" stroke-linecap="round" stroke-linejoin="round"/><path d="M9.15589,19.23384a2.04906,2.04906,0,0,0,1.37468,2.441,2.04937,2.04937,0,0,0,2.71173-.70507" fill="none" stroke="#000" stroke-linecap="round" stroke-linejoin="round"/></g><g data-name="Layer 2" id="Layer_2-2"><rect fill="none" height="24" width="24"/></g></g></svg>