<?xml version="1.0" encoding="UTF-8"?>
<svg width="40px" height="41px" viewBox="0 0 40 41" version="1.1" xmlns="http://www.w3.org/2000/svg" xmlns:xlink="http://www.w3.org/1999/xlink">
    <!-- Generator: Sketch 46.1 (44463) - http://www.bohemiancoding.com/sketch -->
    <title>bulb</title>
    <desc>Created with Sketch.</desc>
    <defs></defs>
    <g id="Property" stroke="none" stroke-width="1" fill="none" fill-rule="evenodd" fill-opacity="0.943868886">
        <g id="Desktop-HD-Copy-15" transform="translate(-1075.000000, -114.000000)" fill-rule="nonzero" fill="#FFFFFF">
            <g id="Group-2" transform="translate(1055.000000, 101.000000)">
                <g id="bulb" transform="translate(20.663955, 13.000000)">
                    <path d="M24.6548924,35.4131487 L13.9204701,35.4131487 L13.831443,34.61541 C13.4507996,31.2027054 9.95958296,27.2859813 9.92453293,27.2469589 C7.75844105,24.9049159 6.56113202,21.8333649 6.56113202,18.6071264 C6.56113202,11.5814647 12.277091,5.86550575 19.3027527,5.86550575 C26.3284145,5.86550575 32.0443734,11.5814647 32.0443734,18.6071264 C32.0443734,21.8153726 30.847298,24.8813155 28.6737288,27.2394816 C28.6440531,27.2724286 25.1245628,31.20364 24.7441531,34.61541 L24.6548924,35.4131487 Z M15.4839351,33.6188208 L23.091661,33.6188208 C23.8924374,29.8827212 27.1983562,26.1952244 27.348604,26.0295545 C29.221444,23.9973538 30.2498119,21.3634608 30.2498119,18.6071264 C30.2498119,12.5705766 25.3388353,7.65959997 19.3025191,7.65959997 C13.2659692,7.65959997 8.35499257,12.5705766 8.35499257,18.6071264 C8.35499257,21.3802849 9.38289313,24.0193185 11.2496577,26.0377329 C11.4057472,26.2106464 14.6864301,29.8857589 15.4839351,33.6188208 Z" id="Shape"></path>
                    <path d="M22.8421048,40.9889075 L15.7956467,40.9889075 C14.7095631,40.9889075 13.825835,40.1051794 13.825835,39.0190958 L13.825835,36.4450216 L15.6199292,36.4450216 L15.6199292,39.0193295 C15.6199292,39.1144319 15.7003106,39.1948133 15.795413,39.1948133 L22.8416374,39.1948133 C22.9367399,39.1948133 23.0171213,39.1144319 23.0171213,39.0193295 L23.0171213,36.4450216 L24.8112155,36.4450216 L24.8112155,39.0193295 C24.8116828,40.1051794 23.9281884,40.9889075 22.8421048,40.9889075 Z" id="Shape"></path>
                    <rect id="Rectangle-path" x="18.4054719" y="0.120104771" width="1.79409422" height="4.71936975"></rect>
                    <rect id="Rectangle-path" transform="translate(7.382033, 7.594988) rotate(45.000000) translate(-7.382033, -7.594988) " x="5.02237064" y="6.6978331" width="4.7193245" height="1.79431068"></rect>
                    <rect id="Rectangle-path" x="0.210533849" y="18.7440552" width="4.71936975" height="1.79409422"></rect>
                    <rect id="Rectangle-path" transform="translate(31.323758, 7.595670) rotate(45.000000) translate(-31.323758, -7.595670) " x="30.4266022" y="5.23600749" width="1.79431068" height="4.7193245"></rect>
                    <rect id="Rectangle-path" x="33.7777143" y="18.7440552" width="4.71936975" height="1.79409422"></rect>
                    <path d="M26.8470463,20.4993368 C25.5683475,20.4993368 24.9323143,19.6328327 24.5114977,19.0598058 C24.1497082,18.5670293 24.0575198,18.497059 23.9072993,18.497059 C23.7567471,18.497059 23.6645587,18.5670293 23.3027692,19.0601374 C22.8819526,19.6334959 22.2459194,20.4996684 20.9672206,20.4996684 C19.6885218,20.4996684 19.0528202,19.6331643 18.6323352,19.0598058 C18.2708773,18.5673609 18.1790206,18.4973906 18.0294633,18.4973906 C17.8792427,18.4973906 17.7870543,18.5673609 17.4259281,19.0601374 C17.0051115,19.6334959 16.3694098,20.5 15.0907111,20.5 C13.8120123,20.5 13.1763107,19.6334959 12.7558257,19.0601374 C12.3943678,18.5676925 12.3025111,18.4977222 12.1529537,18.4977222 L12.1529537,16.3498664 C13.4313209,16.3498664 14.0670225,17.2163706 14.4875075,17.789729 C14.8489654,18.2821739 14.9408221,18.3524758 15.0907111,18.3524758 C15.2409316,18.3524758 15.33312,18.2825055 15.6942463,17.789729 C16.1150629,17.2163706 16.7507645,16.3498664 18.0294633,16.3498664 C19.3078304,16.3498664 19.9435321,17.2163706 20.364017,17.789729 C20.7254749,18.2821739 20.8173316,18.3524758 20.9672206,18.3524758 C21.1177728,18.3524758 21.2096295,18.2825055 21.571419,17.789729 C21.9922356,17.2163706 22.6282689,16.3498664 23.9072993,16.3498664 C25.185998,16.3498664 25.8220313,17.2163706 26.2428478,17.7893974 C26.6046374,18.2821739 26.6968257,18.3521442 26.8470463,18.3521442 L26.8470463,20.4993368 L26.8470463,20.4993368 Z" id="Shape" transform="translate(19.500000, 18.424933) rotate(180.000000) translate(-19.500000, -18.424933) "></path>
                </g>
            </g>
        </g>
    </g>
</svg>