<?xml version="1.0" encoding="UTF-8"?>
<svg width="40px" height="40px" viewBox="0 0 40 40" version="1.1" xmlns="http://www.w3.org/2000/svg" xmlns:xlink="http://www.w3.org/1999/xlink">
    <!-- Generator: Sketch 45 (43475) - http://www.bohemiancoding.com/sketch -->
    <title>Happy-_face_emoticons_emoji</title>
    <desc>Created with Sketch.</desc>
    <defs></defs>
    <g id="How-our-process-works" stroke="none" stroke-width="1" fill="none" fill-rule="evenodd">
        <g id="Desktop-HD-Copy-5" transform="translate(-258.000000, -902.000000)">
            <g id="Group-Copy-3" transform="translate(256.000000, 902.000000)">
                <g id="Happy-_face_emoticons_emoji" transform="translate(3.730578, 1.000000)">
                    <path d="M37.2694223,18.6347112 C37.2694223,28.9262123 28.9262123,37.2694223 18.6347112,37.2694223 C8.34320999,37.2694223 0,28.9262123 0,18.6347112 C0,8.34320999 8.34320999,0 18.6347112,0 C28.9262123,0 37.2694223,8.34320999 37.2694223,18.6347112" id="Fill-353" fill="#FFFFFF" fill-rule="nonzero"></path>
                    <path d="M37.2694223,18.6347112 C37.2694223,28.9262123 28.9262123,37.2694223 18.6347112,37.2694223 C8.34320999,37.2694223 0,28.9262123 0,18.6347112 C0,8.34320999 8.34320999,0 18.6347112,0 C28.9262123,0 37.2694223,8.34320999 37.2694223,18.6347112 L37.2694223,18.6347112 Z" id="Stroke-355" stroke-opacity="0.73194067" stroke="#000000" stroke-width="2" stroke-linecap="round" stroke-linejoin="round"></path>
                    <path d="M8.35349121,12.8515249 C8.35349121,11.432074 9.50434527,10.28122 10.9237962,10.28122 C12.3432471,10.28122 13.4941012,11.432074 13.4941012,12.8515249" id="Stroke-357" stroke-opacity="0.73194067" stroke="#000000" stroke-width="2" stroke-linecap="round" stroke-linejoin="round"></path>
                    <path d="M23.7753211,12.8515249 C23.7753211,11.432074 24.9261752,10.28122 26.3456261,10.28122 C27.7650771,10.28122 28.9159311,11.432074 28.9159311,12.8515249" id="Stroke-359" stroke-opacity="0.73194067" stroke="#000000" stroke-width="2" stroke-linecap="round" stroke-linejoin="round"></path>
                    <path d="M9.86418797,20.5624399 C9.1624947,20.5624399 8.75638652,21.3489532 9.15028576,21.9298422 C11.2174535,24.9814368 14.6603771,26.9882024 18.6321409,26.9882024 C22.6071175,26.9882024 26.0519688,24.9788664 28.1191366,21.924059 C28.5104655,21.3450978 28.1069276,20.5624399 27.4078047,20.5624399 L9.86418797,20.5624399 Z" id="Fill-373" fill="#F8F8F8" fill-rule="nonzero"></path>
                    <path d="M9.86418797,20.5624399 C9.1624947,20.5624399 8.75638652,21.3489532 9.15028576,21.9298422 C11.2174535,24.9814368 14.6603771,26.9882024 18.6321409,26.9882024 C22.6071175,26.9882024 26.0519688,24.9788664 28.1191366,21.924059 C28.5104655,21.3450978 28.1069276,20.5624399 27.4078047,20.5624399 L9.86418797,20.5624399 L9.86418797,20.5624399 Z" id="Stroke-375" stroke-opacity="0.73194067" stroke="#000000" stroke-width="2" stroke-linecap="round" stroke-linejoin="round"></path>
                </g>
            </g>
        </g>
    </g>
</svg>