<?xml version="1.0" encoding="UTF-8"?>
<svg width="25px" height="25px" viewBox="0 0 25 25" version="1.1" xmlns="http://www.w3.org/2000/svg" xmlns:xlink="http://www.w3.org/1999/xlink">
    <!-- Generator: Sketch 46.2 (44496) - http://www.bohemiancoding.com/sketch -->
    <title>i-unlocked</title>
    <desc>Created with Sketch.</desc>
    <defs></defs>
    <g id="icons" stroke="none" stroke-width="1" fill="none" fill-rule="evenodd" fill-opacity="0.73194067">
        <g id="Artboard" transform="translate(0.000000, -30.000000)" fill-rule="nonzero" fill="#000000">
            <g id="i-unlocked" transform="translate(-1.000000, 29.198341)">
                <path d="M16.1733528,25.7980484 L2.0492998,25.7980484 C1.44678191,25.7980484 0.95690483,25.3081713 0.95690483,24.7060952 L0.95690483,11.4529102 L17.2659686,11.4529102 L17.2659686,24.7060952 C17.2659686,25.3083922 16.7758707,25.7980484 16.1733528,25.7980484 Z M1.84036215,12.3363675 L1.84036215,24.7060952 C1.84036215,24.8191777 1.93621727,24.9145911 2.0492998,24.9145911 L16.1733528,24.9145911 C16.2866562,24.9145911 16.3822905,24.8189568 16.3822905,24.7060952 L16.3822905,12.3363675 L1.84036215,12.3363675 Z" id="Shape"></path>
                <path d="M13.3184555,11.8675232 C13.0058958,11.8675232 12.7522241,11.6138515 12.7522241,11.3012918 L12.7522241,7.39769208 C12.7522241,3.76022118 15.7116328,0.801095559 19.3493868,0.801095559 C22.9868577,0.801095559 25.9462665,3.76050429 25.9462665,7.39769208 L25.9462665,10.169112 C25.9462665,10.4816717 25.6925948,10.7353434 25.380035,10.7353434 C25.0674752,10.7353434 24.8138035,10.4816717 24.8138035,10.169112 L24.8138035,7.39769208 C24.8138035,4.38477448 22.3625875,1.93355848 19.3493868,1.93355848 C16.3361861,1.93355848 13.884687,4.38477448 13.884687,7.39769208 L13.884687,11.3015749 C13.884687,11.6141347 13.6310153,11.8675232 13.3184555,11.8675232 Z" id="Shape"></path>
                <path d="M12.1109837,21.3184481 L8.11188974,21.3184481 L8.79794562,19.0976159 C8.45420155,18.7524396 8.25573027,18.2816329 8.25573027,17.7889331 C8.25573027,16.7654761 9.0882866,15.9325105 10.111539,15.9325105 C11.1352007,15.9325105 11.967757,16.7654761 11.967757,17.7889331 C11.967757,18.2812237 11.7692857,18.7520303 11.4259509,19.0976159 L12.1109837,21.3184481 Z M9.22128281,20.5000099 L11.0019999,20.5000099 L10.4781994,18.8021597 L10.7163649,18.6302876 C10.987268,18.4348855 11.1491141,18.1204006 11.1491141,17.7887285 C11.1491141,17.2164355 10.6836274,16.7507442 10.1113344,16.7507442 C9.53924608,16.7507442 9.07396393,17.2164355 9.07396393,17.7887285 C9.07396393,18.1204006 9.23581009,18.4350901 9.50671316,18.6298784 L9.74549252,18.8017505 L9.22128281,20.5000099 Z" id="Shape"></path>
            </g>
        </g>
    </g>
</svg>