<?xml version="1.0" encoding="UTF-8"?>
<svg width="59px" height="72px" viewBox="0 0 59 72" version="1.1" xmlns="http://www.w3.org/2000/svg" xmlns:xlink="http://www.w3.org/1999/xlink">
    <!-- Generator: Sketch 45.2 (43514) - http://www.bohemiancoding.com/sketch -->
    <title>if_639_-_Property_Search_1467958</title>
    <desc>Created with Sketch.</desc>
    <defs></defs>
    <g id="Page-1" stroke="none" stroke-width="1" fill="none" fill-rule="evenodd">
        <g id="Desktop-HD-Copy-6" transform="translate(-362.000000, -344.000000)" fill-rule="nonzero" fill="#000000">
            <g id="Group-2" transform="translate(294.000000, 233.000000)">
                <g id="Group-Copy-4" transform="translate(0.000000, 60.000000)">
                    <g id="if_639_-_Property_Search_1467958" transform="translate(68.594276, 51.000000)">
                        <g id="Layer_x0020_1" transform="translate(0.017788, 0.690931)">
                            <g id="_206528384">
                                <path d="M53.9872486,0.0458009431 C55.0492975,0.0458009431 56.0140859,0.479486818 56.7127133,1.17812954 C57.4113956,1.87671542 57.8451091,2.8414465 57.8451091,3.90343237 L57.8451091,56.1201753 C57.8451091,57.1821061 57.4113975,58.1468418 56.7127133,58.8454276 C56.0140859,59.5440135 55.0492975,59.9777012 53.9872486,59.9777012 L28.1591182,59.9777012 C27.551415,59.9777012 27.0587299,59.4850454 27.0587299,58.8773783 C27.0587299,58.5027701 27.2459912,58.1719704 27.5319748,57.9732383 C27.6467252,57.8773933 27.7547063,57.7836059 27.8555931,57.6921466 C27.9659029,57.5921859 28.0912669,57.4721361 28.2320648,57.3314548 C30.3113785,55.2479866 31.3521991,52.5197771 31.3521991,49.7915722 C31.3521991,47.0633994 30.3114335,44.3352541 28.2299528,42.2538556 C26.1484217,40.1724985 23.4201556,39.1317397 20.6917887,39.1317397 C17.9635043,39.1317397 15.2351008,40.1725535 13.1536705,42.2538556 C13.0422777,42.3652418 12.9755612,42.4326581 12.9513549,42.4582709 C12.8946567,42.5181605 12.8317853,42.5870389 12.75218,42.6757364 C12.346249,43.1267501 11.6515212,43.1633033 11.2004812,42.7573941 C10.9595003,42.5405242 10.8369519,42.2412922 10.8368437,41.940762 L10.8351108,3.90333086 C10.8351108,2.84134499 11.2688224,1.87661391 11.9675066,1.17802804 C12.6661339,0.479387143 13.6309223,0.0456994337 14.6929712,0.0456994337 L53.9872486,0.0458009431 Z M53.9872486,2.24644686 L14.6930249,2.24644686 C14.2385187,2.24644686 13.8244655,2.43320972 13.5235918,2.73406415 C13.2227177,3.03492041 13.0359456,3.44894856 13.0359456,3.90342778 L13.0359456,39.4562379 C15.3025758,37.7730464 17.9972754,36.9311801 20.6918054,36.9311801 C23.9831722,36.9311801 27.274649,38.1868595 29.7860102,40.6980028 C32.2973026,43.2092011 33.5530015,46.5004643 33.5530015,49.7916678 C33.5530015,52.6181224 32.626823,55.4446686 30.7746265,57.7771241 L53.9872715,57.7771241 C54.4417778,57.7771241 54.855886,57.5903612 55.1567046,57.2895572 C55.4575787,56.988701 55.6443508,56.5746728 55.6443508,56.1202486 L55.6443508,3.90350572 C55.6443508,3.4490265 55.4575769,3.03499789 55.1567046,2.73414209 C54.8558305,2.43328582 54.4417778,2.2465248 53.9872715,2.2465248 L53.9872486,2.24644686 Z" id="_206528936"></path>
                                <path d="M27.7090663,41.454209 C27.1013992,41.454209 26.6087433,40.9615531 26.6087433,40.353886 C26.6087433,39.7462189 27.1013992,39.253563 27.7090663,39.253563 L47.2991704,39.253563 C47.9068375,39.253563 48.3994933,39.7462189 48.3994933,40.353886 C48.3994933,40.9615531 47.9068375,41.454209 47.2991704,41.454209 L27.7090663,41.454209 Z" id="_206528528"></path>
                                <path d="M31.8098782,47.0553113 C31.2022111,47.0553113 30.7095553,46.5626554 30.7095553,45.9549883 C30.7095553,45.3473212 31.2022111,44.8546654 31.8098782,44.8546654 L47.2989411,44.8546654 C47.9066082,44.8546654 48.3992641,45.3473212 48.3992641,45.9549883 C48.3992641,46.5626554 47.9066082,47.0553113 47.2989411,47.0553113 L31.8098782,47.0553113 Z" id="_206529080"></path>
                                <path d="M32.3183191,52.6559551 C31.710652,52.6559551 31.2179962,52.1632993 31.2179962,51.5556322 C31.2179962,50.9479651 31.710652,50.4553092 32.3183191,50.4553092 L47.2990787,50.4553092 C47.9067458,50.4553092 48.3994016,50.9479651 48.3994016,51.5556322 C48.3994016,52.1632993 47.9067458,52.6559551 47.2990787,52.6559551 L32.3183191,52.6559551 Z" id="_206528000"></path>
                                <path d="M25.3814706,19.1554307 L34.3760606,10.5075341 C34.8040065,10.0958872 35.4796341,10.1005984 35.9018922,10.5118119 L35.9023254,10.5122451 L35.9089317,10.5186348 L44.8047219,19.1597002 L44.8118155,19.1667397 L45.0768246,19.4039697 C45.3186036,19.6202983 45.4417399,19.9198011 45.4418485,20.2206019 L45.4464513,20.2206019 L45.4464513,33.0237306 C45.4464513,33.6313977 44.9537954,34.1240536 44.3461283,34.1240536 L25.9290143,34.1240536 C25.3213472,34.1240536 24.8286914,33.6313977 24.8286914,33.0237306 L24.8286914,20.1513274 C24.8286914,19.8108875 24.9833973,19.5064557 25.2262592,19.3046427 L25.3814524,19.1554059 L25.3814706,19.1554307 Z M35.1329911,12.8244016 L27.0293876,20.6156509 L27.0293876,31.9234407 L43.2458557,31.9234407 L43.2458557,20.7049605 L35.133037,12.8244475 L35.1329911,12.8244016 Z" id="_206527952"></path>
                                <path d="M32.7176447,24.1386558 L37.5571401,24.1386558 C38.1648072,24.1386558 38.6574631,24.6313117 38.6574631,25.2389788 L38.6574631,33.0360506 C38.6574631,33.6437177 38.1648072,34.1363736 37.5571401,34.1363736 L32.7176447,34.1363736 C32.1099776,34.1363736 31.6173217,33.6437177 31.6173217,33.0360506 L31.6173217,25.2389788 C31.6173217,24.6313117 32.1099776,24.1386558 32.7176447,24.1386558 Z M36.4567942,26.3393017 L33.8179676,26.3393017 L33.8179676,31.9357277 L36.4567942,31.9357277 L36.4567942,26.3393017 Z" id="_206527976"></path>
                                <path d="M23.0273755,19.7356676 C22.5882746,20.1534332 21.8935339,20.1361054 21.4757688,19.6970047 C21.0580032,19.2579038 21.075331,18.5631631 21.5144318,18.145398 L34.3811041,5.92699928 C34.8069383,5.52185074 35.4731426,5.52596594 35.8940482,5.92699928 L48.7607205,18.145398 C49.1998214,18.5631636 49.2171492,19.2579071 48.7993835,19.6970047 C48.3816179,20.1361055 47.6868745,20.1534333 47.2477768,19.7356676 L35.1375765,8.23559641 L23.0273762,19.7356676 L23.0273755,19.7356676 Z" id="_206527784"></path>
                                <path d="M29.7848255,40.6981954 C32.2960238,43.2093937 33.5516482,46.5006568 33.5516482,49.7918603 C33.5516482,53.0829217 32.2960238,56.3743132 29.7848255,58.8854336 L29.7847714,58.8854877 C27.2736281,61.396631 23.98231,62.6522554 20.691244,62.6522554 C17.4000726,62.6522554 14.108837,61.396631 11.5976707,58.8854877 L11.5976166,58.8854336 C9.0864733,56.3742903 7.83084893,53.0829263 7.83084893,49.7918603 C7.83084893,46.5006889 9.0864733,43.2094075 11.5976166,40.6981954 L11.5976707,40.6981412 C14.108814,38.1869979 17.400178,36.9313736 20.691244,36.9313736 C23.9823054,36.9313736 27.273651,38.1869979 29.7847714,40.6981412 L29.7848255,40.6981954 L29.7848255,40.6981954 Z M31.3509977,49.7918603 C31.3509977,47.0636875 30.3102389,44.3354963 28.2288818,42.2541437 L28.2288276,42.2540896 C26.1475255,40.1727875 23.4193618,39.1320287 20.6912486,39.1320287 C17.9631262,39.1320287 15.2348846,40.1727875 13.1535778,42.2540896 L13.1535237,42.2541437 C11.0721665,44.3355513 10.0314627,47.0636554 10.0314627,49.7918603 C10.0314627,52.5199827 11.0722216,55.2482243 13.1535237,57.329531 L13.1535778,57.3295852 C15.2349854,59.4109423 17.9630436,60.4516461 20.6912486,60.4516461 C23.419371,60.4516461 26.1475667,59.4108873 28.2288276,57.3295852 L28.2288818,57.329531 C30.3102893,55.2481739 31.3509977,52.5200194 31.3509977,49.7918603 Z" id="_206528504"></path>
                                <path d="M15.2675312,60.5645264 L6.08322716,69.7488304 L6.08317301,69.7488846 C5.60470675,70.2273508 4.97505152,70.466749 4.34642784,70.466749 C3.71769414,70.466749 3.08820396,70.2273527 2.60962766,69.7488846 L2.60957351,69.7488304 L0.73420598,67.8734629 C0.255574663,67.3949416 0.0163415289,66.7653414 0.0163415289,66.1366627 C0.0163415289,65.507984 0.255629679,64.8783838 0.73420598,64.3998075 L9.91851001,55.2155035 C10.3481343,54.7858792 11.0448235,54.7858792 11.4744492,55.2155035 C11.550692,55.2917462 11.6133975,55.3764908 11.6625655,55.4665963 C11.8678472,55.7925779 12.0915401,56.1087585 12.3334278,56.4132958 C12.5782932,56.7216246 12.8516432,57.0276244 13.153526,57.3295118 C13.4554651,57.631451 13.7614132,57.9047973 14.069742,58.149665 C14.3908502,58.4047107 14.7250072,58.6395059 15.0698347,58.8538809 C15.5849096,59.1743394 15.7427005,59.8517546 15.4222415,60.3668249 C15.3769723,60.4396021 15.3245553,60.5052859 15.2664528,60.563443 L15.2675358,60.564526 L15.2675312,60.5645264 Z M4.52727881,68.1928821 L12.7858903,59.9342706 L12.7028787,59.8689118 C12.3118088,59.5583085 11.9423997,59.2302706 11.5975722,58.8854432 C11.2527461,58.5406171 10.9247064,58.1711548 10.6141586,57.7801367 L10.5487999,57.697071 L2.29014252,65.9557283 C2.24140784,66.004463 2.21698617,66.0702009 2.21698617,66.136643 C2.21698617,66.2030846 2.24140775,66.2687684 2.29014252,66.3175031 L4.16551004,68.1928706 L4.16556419,68.1929248 C4.21429887,68.2416594 4.28003675,68.2660811 4.34642428,68.2660811 C4.4128118,68.2660811 4.47849558,68.2416595 4.52723026,68.1929248 L4.52728441,68.1928706 L4.52727881,68.1928821 Z" id="_206527928"></path>
                            </g>
                        </g>
                    </g>
                </g>
            </g>
        </g>
    </g>
</svg>