<?xml version="1.0" ?><!DOCTYPE svg  PUBLIC '-//W3C//DTD SVG 1.1//EN'  'http://www.w3.org/Graphics/SVG/1.1/DTD/svg11.dtd'><svg enable-background="new 0 0 64 64" id="Proximo" version="1.1" viewBox="0 0 64 64" xml:space="preserve" xmlns="http://www.w3.org/2000/svg" xmlns:xlink="http://www.w3.org/1999/xlink"><g id="XMLID_216_"><g id="XMLID_306_"><path d="M53.01953,64c-0.00488,0.00098-0.0127,0.00049-0.01953,0h-8c-0.29395,0-0.57324-0.12939-0.7627-0.35352    c-0.19043-0.22461-0.27246-0.521-0.22363-0.81104l1-6C45.09375,56.35352,45.51074,56,46,56h6    c0.48926,0,0.90625,0.35352,0.98633,0.83545l0.96777,5.80713c0.04297,0.11084,0.06543,0.23145,0.06543,0.35742    C54.01953,63.55225,53.57227,64,53.01953,64z M46.18066,62h5.63867l-0.66602-4h-4.30664L46.18066,62z" fill="#1D1D1D"/></g><g id="XMLID_305_"><path d="M56,64H42c-0.55273,0-1-0.44775-1-1s0.44727-1,1-1h14c0.55273,0,1,0.44775,1,1S56.55273,64,56,64z" fill="#1D1D1D"/></g><g id="XMLID_217_"><g id="XMLID_287_"><path d="M28,22H2c-1.10254,0-2-0.89697-2-2V2c0-1.10303,0.89746-2,2-2h26c1.10254,0,2,0.89697,2,2v18     C30,21.10303,29.10254,22,28,22z M2,2v18h26.00098L28,2H2z" fill="#1D1D1D"/></g><g id="XMLID_301_"><path d="M19.01953,28C19.01563,28.00049,19.00781,28,19,28h-8c-0.29395,0-0.57324-0.12939-0.7627-0.35352     c-0.19043-0.22461-0.27246-0.521-0.22363-0.81104l1-6C11.09375,20.35352,11.51074,20,12,20h6     c0.48926,0,0.90625,0.35352,0.98633,0.83545l0.96777,5.80713c0.04297,0.11084,0.06543,0.23145,0.06543,0.35742     C20.01953,27.55225,19.57227,28,19.01953,28z M12.18066,26h5.63867l-0.66602-4h-4.30664L12.18066,26z" fill="#1D1D1D"/></g><g id="XMLID_302_"><path d="M22,28H8c-0.55273,0-1-0.44775-1-1s0.44727-1,1-1h14c0.55273,0,1,0.44775,1,1S22.55273,28,22,28z" fill="#1D1D1D"/></g><g id="XMLID_307_"><path d="M62,58H36c-1.10254,0-2-0.89697-2-2V38c0-1.10303,0.89746-2,2-2h26c1.10254,0,2,0.89697,2,2v18     C64,57.10303,63.10254,58,62,58z M36,38v18h26.00098L62,38H36z" fill="#1D1D1D"/></g><g id="XMLID_218_"><g id="XMLID_308_"><path d="M33,14c-0.27051,0-0.52051-0.11035-0.70996-0.29004C32.10938,13.52002,32,13.27002,32,13      s0.10938-0.52002,0.29004-0.70996c0.37012-0.37012,1.0498-0.37012,1.41992,0C33.88965,12.47998,34,12.72998,34,13      s-0.11035,0.52002-0.29004,0.70996C33.51953,13.88965,33.26953,14,33,14z" fill="#1D1D1D"/></g><g id="XMLID_309_"><path d="M37,14c-0.25977,0-0.52051-0.11035-0.70996-0.29004C36.10938,13.52002,36,13.25977,36,13      c0-0.27002,0.10938-0.52002,0.29004-0.70996c0.37012-0.37012,1.0498-0.37012,1.41992,0C37.88965,12.47998,38,12.72998,38,13      c0,0.25977-0.11035,0.52002-0.29004,0.70996C37.51953,13.88965,37.25977,14,37,14z" fill="#1D1D1D"/></g><g id="XMLID_311_"><path d="M41,14c-0.25977,0-0.52051-0.11035-0.70996-0.29004C40.10938,13.52002,40,13.25977,40,13      c0-0.26025,0.09961-0.52002,0.29004-0.70996c0.37988-0.37012,1.0498-0.37012,1.41992,0C41.88965,12.47998,42,12.73975,42,13      c0,0.25977-0.11035,0.52002-0.29004,0.70996C41.51953,13.88965,41.25977,14,41,14z" fill="#1D1D1D"/></g><g id="XMLID_310_"><path d="M45,14c-0.27051,0-0.52051-0.11035-0.70996-0.29004C44.10938,13.52002,44,13.27002,44,13      c0-0.26025,0.10938-0.52002,0.29004-0.70996c0.37012-0.37012,1.0498-0.37012,1.41992,0C45.88965,12.47998,46,12.73975,46,13      c0,0.27002-0.11035,0.52002-0.29004,0.70996C45.51953,13.88965,45.26953,14,45,14z" fill="#1D1D1D"/></g><g id="XMLID_312_"><path d="M49,14c-0.25977,0-0.52051-0.11035-0.70996-0.29004C48.10938,13.52002,48,13.27002,48,13      s0.10938-0.52002,0.29004-0.70996c0.37012-0.37012,1.0498-0.37012,1.41992,0C49.88965,12.47998,50,12.73975,50,13      c0,0.25977-0.11035,0.52002-0.29004,0.70996C49.51953,13.88965,49.25977,14,49,14z" fill="#1D1D1D"/></g><g id="XMLID_313_"><path d="M49,18c-0.25977,0-0.52051-0.11035-0.70996-0.29004C48.10938,17.52002,48,17.25977,48,17      c0-0.26025,0.10938-0.52002,0.29004-0.70996c0.37988-0.37012,1.04004-0.37012,1.41992,0C49.88965,16.47998,50,16.73975,50,17      c0,0.25977-0.11035,0.52002-0.29004,0.70996C49.51953,17.88965,49.25977,18,49,18z" fill="#1D1D1D"/></g><g id="XMLID_315_"><path d="M49,22c-0.25977,0-0.52051-0.11035-0.70996-0.29004C48.10938,21.52002,48,21.25977,48,21      c0-0.26025,0.10938-0.52002,0.29004-0.70996c0.37988-0.37012,1.04004-0.37012,1.41992,0C49.88965,20.47998,50,20.73975,50,21      c0,0.25977-0.11035,0.52002-0.29004,0.70996C49.51953,21.88965,49.25977,22,49,22z" fill="#1D1D1D"/></g><g id="XMLID_314_"><path d="M49,26c-0.27051,0-0.52051-0.11035-0.70996-0.29004C48.10938,25.52002,48,25.27002,48,25      s0.10938-0.52002,0.29004-0.70996c0.37012-0.37012,1.0498-0.37012,1.41992,0C49.88965,24.47998,50,24.73975,50,25      c0,0.25977-0.11035,0.52002-0.29004,0.70996C49.51953,25.88965,49.26953,26,49,26z" fill="#1D1D1D"/></g><g id="XMLID_317_"><path d="M49,30c-0.25977,0-0.52051-0.11035-0.70996-0.29004C48.10938,29.52002,48,29.27002,48,29      s0.10938-0.52002,0.29004-0.70996c0.37012-0.37012,1.0498-0.37012,1.41992,0C49.88965,28.47998,50,28.73975,50,29      c0,0.25977-0.11035,0.52002-0.29004,0.70996C49.51953,29.88965,49.25977,30,49,30z" fill="#1D1D1D"/></g><g id="XMLID_316_"><path d="M49,34c-0.25977,0-0.52051-0.11035-0.70996-0.29004C48.10938,33.52002,48,33.25977,48,33      c0-0.26025,0.10938-0.52002,0.29004-0.70996c0.37988-0.37012,1.04004-0.37012,1.41992,0C49.88965,32.47998,50,32.73975,50,33      c0,0.25977-0.11035,0.52002-0.29004,0.70996C49.51953,33.88965,49.25977,34,49,34z" fill="#1D1D1D"/></g></g><g id="XMLID_219_"><g id="XMLID_266_"><path d="M31,52c-0.25977,0-0.52051-0.11035-0.70996-0.29004C30.10938,51.52002,30,51.25977,30,51      c0-0.26025,0.10938-0.52002,0.29004-0.70996c0.37988-0.37012,1.04004-0.37012,1.41992,0C31.88965,50.47998,32,50.73975,32,51      c0,0.25977-0.11035,0.52002-0.29004,0.70996C31.51953,51.88965,31.25977,52,31,52z" fill="#1D1D1D"/></g><g id="XMLID_265_"><path d="M27,52c-0.27051,0-0.52051-0.11035-0.70996-0.29004C26.10938,51.52002,26,51.25977,26,51      c0-0.26025,0.10938-0.52002,0.29004-0.70996c0.37988-0.37012,1.0498-0.37012,1.41992,0C27.88965,50.47998,28,50.73975,28,51      c0,0.25977-0.11035,0.52002-0.29004,0.70996C27.51953,51.88965,27.26953,52,27,52z" fill="#1D1D1D"/></g><g id="XMLID_264_"><path d="M23,52c-0.27051,0-0.52051-0.11035-0.70996-0.29004C22.10938,51.52002,22,51.25977,22,51      c0-0.26025,0.10938-0.52002,0.29004-0.70996c0.37012-0.37012,1.0498-0.37012,1.41992,0C23.88965,50.47998,24,50.73975,24,51      c0,0.25977-0.11035,0.52002-0.29004,0.70996C23.51953,51.88965,23.26953,52,23,52z" fill="#1D1D1D"/></g><g id="XMLID_263_"><path d="M19,52c-0.25977,0-0.52051-0.11035-0.70996-0.29004C18.10938,51.52002,18,51.25977,18,51      c0-0.26025,0.10938-0.52002,0.29004-0.70996c0.37988-0.37012,1.04004-0.37012,1.41992,0C19.88965,50.47998,20,50.73975,20,51      c0,0.25977-0.11035,0.52002-0.29004,0.70996C19.51953,51.88965,19.25977,52,19,52z" fill="#1D1D1D"/></g><g id="XMLID_262_"><path d="M15,52c-0.25977,0-0.52051-0.11035-0.70996-0.29004C14.10938,51.52002,14,51.25977,14,51      c0-0.26025,0.10938-0.52002,0.29004-0.70996c0.37012-0.37012,1.0498-0.37012,1.41992,0C15.88965,50.47998,16,50.73975,16,51      c0,0.27002-0.11035,0.52002-0.2998,0.70996C15.51953,51.88965,15.25977,52,15,52z" fill="#1D1D1D"/></g><g id="XMLID_222_"><path d="M15,48c-0.25977,0-0.52051-0.11035-0.70996-0.29004C14.10938,47.52002,14,47.25977,14,47      c0-0.26025,0.10938-0.52002,0.29004-0.70996c0.37012-0.37012,1.0498-0.37012,1.41992,0C15.88965,46.47998,16,46.73975,16,47      c0,0.25977-0.11035,0.52002-0.29004,0.70996C15.51953,47.88965,15.25977,48,15,48z" fill="#1D1D1D"/></g><g id="XMLID_221_"><path d="M15,44c-0.25977,0-0.52051-0.11035-0.70996-0.29004C14.10938,43.52002,14,43.25977,14,43      c0-0.26025,0.10938-0.52002,0.29004-0.70996c0.37988-0.37012,1.04004-0.37012,1.41992,0C15.88965,42.47998,16,42.73975,16,43      c0,0.25977-0.11035,0.52002-0.29004,0.70996C15.51953,43.88965,15.25977,44,15,44z" fill="#1D1D1D"/></g><g id="XMLID_220_"><path d="M15,40c-0.25977,0-0.52051-0.11035-0.70996-0.29004C14.10938,39.52002,14,39.25977,14,39      c0-0.26025,0.10938-0.52002,0.29004-0.70996c0.37012-0.37012,1.04004-0.37012,1.41992,0C15.88965,38.47998,16,38.72998,16,39      c0,0.25977-0.11035,0.52002-0.29004,0.70996C15.51953,39.88965,15.25977,40,15,40z" fill="#1D1D1D"/></g><g id="XMLID_267_"><path d="M15,36c-0.25977,0-0.52051-0.11035-0.70996-0.29004C14.10938,35.52002,14,35.25977,14,35      c0-0.26025,0.10938-0.52002,0.29004-0.70996c0.37012-0.37012,1.0498-0.37012,1.41992,0C15.88965,34.47998,16,34.73975,16,35      c0,0.27002-0.11035,0.52002-0.2998,0.70996C15.51953,35.88965,15.25977,36,15,36z" fill="#1D1D1D"/></g><g id="XMLID_268_"><path d="M15,32c-0.25977,0-0.52051-0.11035-0.70996-0.29004C14.10938,31.52002,14,31.25977,14,31      c0-0.26025,0.10938-0.52002,0.29004-0.70996c0.37012-0.37012,1.0498-0.37012,1.41992,0C15.88965,30.47998,16,30.73975,16,31      c0,0.25977-0.11035,0.52002-0.29004,0.70996C15.51953,31.88965,15.25977,32,15,32z" fill="#1D1D1D"/></g></g><g id="XMLID_269_"><path d="M29,17H1c-0.55273,0-1-0.44775-1-1s0.44727-1,1-1h28c0.55273,0,1,0.44775,1,1S29.55273,17,29,17z" fill="#1D1D1D"/></g><g id="XMLID_270_"><path d="M63,53H35c-0.55273,0-1-0.44775-1-1s0.44727-1,1-1h28c0.55273,0,1,0.44775,1,1S63.55273,53,63,53z" fill="#1D1D1D"/></g></g><g id="XMLID_271_"><path d="M5,6C4.74023,6,4.47949,5.88965,4.29004,5.70996C4.10938,5.52002,4,5.25977,4,5    c0-0.27002,0.10938-0.52002,0.29004-0.70996c0.35938-0.36035,1.04004-0.37012,1.41992,0C5.88965,4.47998,6,4.72998,6,5    c0,0.25977-0.11035,0.52002-0.29004,0.70996C5.51953,5.88965,5.25977,6,5,6z" fill="#1D1D1D"/></g><g id="XMLID_272_"><path d="M5,10c-0.27051,0-0.53027-0.11035-0.70996-0.29004C4.10938,9.52002,4,9.25977,4,9    c0-0.27002,0.10938-0.52002,0.29004-0.70996c0.35938-0.37012,1.04004-0.37012,1.41992,0C5.88965,8.47998,6,8.72998,6,9    c0,0.25977-0.11035,0.52002-0.29004,0.70996C5.51953,9.88965,5.25977,10,5,10z" fill="#1D1D1D"/></g><g id="XMLID_273_"><path d="M9,6C8.74023,6,8.47949,5.88965,8.29004,5.70996C8.10938,5.52002,8,5.25977,8,5    c0-0.26025,0.10938-0.52002,0.29004-0.70996c0.37012-0.37012,1.0498-0.37012,1.41992,0C9.88965,4.47998,10,4.73975,10,5    c0,0.25977-0.11035,0.52002-0.29004,0.70996C9.51953,5.88965,9.25977,6,9,6z" fill="#1D1D1D"/></g><g id="XMLID_274_"><g id="XMLID_281_"><path d="M59,49c-0.25977,0-0.52051-0.11035-0.70996-0.29004C58.10938,48.52002,58,48.25977,58,48     c0-0.27002,0.10938-0.52002,0.29004-0.70996c0.37988-0.37012,1.04004-0.37012,1.41992,0C59.88965,47.47998,60,47.72998,60,48     c0,0.25977-0.11035,0.52002-0.29004,0.70996C59.51953,48.88965,59.25977,49,59,49z" fill="#1D1D1D"/></g><g id="XMLID_282_"><path d="M59,45c-0.25977,0-0.52051-0.11035-0.70996-0.29004C58.10938,44.52002,58,44.27002,58,44     c0-0.26025,0.10938-0.52002,0.29004-0.70996c0.37012-0.37012,1.0498-0.37012,1.41992,0C59.88965,43.47998,60,43.73975,60,44     c0,0.27002-0.11035,0.52002-0.29004,0.70996C59.51953,44.88965,59.26953,45,59,45z" fill="#1D1D1D"/></g><g id="XMLID_283_"><path d="M55,49c-0.27051,0-0.53027-0.11035-0.70996-0.29004C54.10938,48.52002,54,48.25977,54,48     c0-0.26025,0.10938-0.52002,0.29004-0.70996c0.37988-0.37012,1.04004-0.37012,1.41992,0C55.88965,47.47998,56,47.73975,56,48     c0,0.27002-0.11035,0.52002-0.29004,0.70996C55.51953,48.88965,55.26953,49,55,49z" fill="#1D1D1D"/></g></g></g></svg>