<?xml version="1.0" ?><svg id="Layer_1" style="enable-background:new 0 0 100 100;" version="1.1" viewBox="0 0 100 100" xml:space="preserve" xmlns="http://www.w3.org/2000/svg" xmlns:xlink="http://www.w3.org/1999/xlink"><path d="M44.3,23.3c-4.1,0-7.5,3.4-7.5,7.5v12.5h-6.1c-4.1,0-7.5,3.4-7.5,7.5v18.6c0,4.1,3.4,7.5,7.5,7.5h18.6  c4.1,0,7.5-3.4,7.5-7.5v-6.1h12.5c4.1,0,7.5-3.4,7.5-7.5v-25c0-4.1-3.4-7.5-7.5-7.5H44.3z M52.5,69.3c0,1.8-1.4,3.2-3.2,3.2H30.7  c-1.8,0-3.2-1.4-3.2-3.2V50.7c0-1.8,1.4-3.2,3.2-3.2h6.1v8.3c0,4.1,3.4,7.5,7.5,7.5h8.3V69.3z M52.5,58.9h-8.3  c-1.8,0-3.2-1.4-3.2-3.2v-8.3h8.3c1.8,0,3.2,1.4,3.2,3.2V58.9z M72.5,30.7v25c0,1.8-1.4,3.2-3.2,3.2H56.8v-8.3  c0-4.1-3.4-7.5-7.5-7.5h-8.3V30.7c0-1.8,1.4-3.2,3.2-3.2h25C71,27.5,72.5,29,72.5,30.7z"/></svg>