<?xml version="1.0" encoding="UTF-8"?>
<svg width="38px" height="34px" viewBox="0 0 38 34" version="1.1" xmlns="http://www.w3.org/2000/svg" xmlns:xlink="http://www.w3.org/1999/xlink">
    <!-- Generator: Sketch 45 (43475) - http://www.bohemiancoding.com/sketch -->
    <title>Search-Webpage</title>
    <desc>Created with Sketch.</desc>
    <defs></defs>
    <g id="How-our-process-works" stroke="none" stroke-width="1" fill="none" fill-rule="evenodd" fill-opacity="0.73194067">
        <g id="Desktop-HD-Copy-5" transform="translate(-257.000000, -568.000000)" fill-rule="nonzero" fill="#000000">
            <g id="Group" transform="translate(232.000000, 471.000000)">
                <g id="Search-Webpage" transform="translate(25.000000, 97.000000)">
                    <path d="M16.5477242,24.069417 C17.8790164,24.0609759 19.1699233,23.6112748 20.2183102,22.7907292 L25.7994063,28.3718252 L26.8674867,27.3037449 L21.2863906,21.7226488 C22.1069362,20.6742619 22.5566374,19.3833549 22.5650784,18.0520627 C22.5650784,14.7287697 19.8710171,12.0347085 16.5477242,12.0347085 C13.2244312,12.0347085 10.5303699,14.7287697 10.5303699,18.0520627 C10.5303699,21.3753557 13.2244312,24.069417 16.5477242,24.069417 Z M16.5477242,13.539047 C19.0401939,13.539047 21.0607398,15.559593 21.0607398,18.0520627 C21.0607398,20.5445325 19.0401939,22.5650784 16.5477242,22.5650784 C14.0552544,22.5650784 12.0347085,20.5445325 12.0347085,18.0520627 C12.0347085,15.559593 14.0552544,13.539047 16.5477242,13.539047 Z M34.5997869,0 L3.00867712,0 C1.34703063,-1.67015131e-16 2.03493006e-16,1.34703063 0,3.00867712 L0,30.0867712 C2.03493006e-16,31.7484177 1.34703063,33.0954483 3.00867712,33.0954483 L34.5997869,33.0954483 C36.2614334,33.0954483 37.608464,31.7484177 37.608464,30.0867712 L37.608464,3.00867712 C37.608464,1.34703063 36.2614334,0 34.5997869,0 Z M36.1041254,30.0867712 C36.1041254,30.9175944 35.4306101,31.5911098 34.5997869,31.5911098 L3.00867712,31.5911098 C2.17785387,31.5911098 1.50433856,30.9175944 1.50433856,30.0867712 L1.50433856,9.02603136 L36.1041254,9.02603136 L36.1041254,30.0867712 Z M36.1041254,7.5216928 L1.50433856,7.5216928 L1.50433856,3.00867712 C1.50433856,2.17785387 2.17785387,1.50433856 3.00867712,1.50433856 L34.5997869,1.50433856 C35.4306101,1.50433856 36.1041254,2.17785387 36.1041254,3.00867712 L36.1041254,7.5216928 Z M6.01735424,3.7608464 L6.01735424,5.26518496 C6.01735424,5.68059658 5.68059658,6.01735424 5.26518496,6.01735424 L3.7608464,6.01735424 C3.34543478,6.01735424 3.00867712,5.68059658 3.00867712,5.26518496 L3.00867712,3.7608464 C3.00867712,3.34543478 3.34543478,3.00867712 3.7608464,3.00867712 L5.26518496,3.00867712 C5.68059658,3.00867712 6.01735424,3.34543478 6.01735424,3.7608464 Z M10.5303699,3.7608464 L10.5303699,5.26518496 C10.5303699,5.68059658 10.1936123,6.01735424 9.77820064,6.01735424 L8.27386208,6.01735424 C7.85845046,6.01735424 7.5216928,5.68059658 7.5216928,5.26518496 L7.5216928,3.7608464 C7.5216928,3.34543478 7.85845046,3.00867712 8.27386208,3.00867712 L9.77820064,3.00867712 C10.1936123,3.00867712 10.5303699,3.34543478 10.5303699,3.7608464 Z M15.0433856,3.7608464 L15.0433856,5.26518496 C15.0433856,5.68059658 14.7066279,6.01735424 14.2912163,6.01735424 L12.7868778,6.01735424 C12.3714661,6.01735424 12.0347085,5.68059658 12.0347085,5.26518496 L12.0347085,3.7608464 C12.0347085,3.34543478 12.3714661,3.00867712 12.7868778,3.00867712 L14.2912163,3.00867712 C14.7066279,3.00867712 15.0433856,3.34543478 15.0433856,3.7608464 Z" id="Shape"></path>
                </g>
            </g>
        </g>
    </g>
</svg>