<?xml version="1.0" ?><!DOCTYPE svg  PUBLIC '-//W3C//DTD SVG 1.1//EN'  'http://www.w3.org/Graphics/SVG/1.1/DTD/svg11.dtd'><svg enable-background="new 0 0 128 128" height="128px" id="Layer_1" version="1.1" viewBox="0 0 128 128" width="128px" xml:space="preserve" xmlns="http://www.w3.org/2000/svg" xmlns:xlink="http://www.w3.org/1999/xlink"><path d="M82.905,114.063H18.956c-2.728,0-4.946-2.218-4.946-4.944V49.113h73.842v60.006  C87.852,111.846,85.633,114.063,82.905,114.063z M18.01,53.113v56.006c0,0.512,0.434,0.944,0.946,0.944h63.949  c0.513,0,0.946-0.433,0.946-0.944V53.113H18.01z"/><path d="M69.459,53.113c-1.104,0-2-0.896-2-2V37.325c0-12.848,10.453-23.3,23.302-23.3c12.848,0,23.301,10.453,23.301,23.3v9.789  c0,1.104-0.896,2-2,2s-2-0.896-2-2v-9.789c0-10.642-8.658-19.3-19.301-19.3s-19.302,8.658-19.302,19.3v13.789  C71.459,52.218,70.563,53.113,69.459,53.113z"/><path d="M60.702,93.487H41.157l3.353-10.854c-1.68-1.687-2.65-3.988-2.65-6.396c0-5.002,4.069-9.073,9.07-9.073  c5.003,0,9.072,4.071,9.072,9.073c0,2.406-0.97,4.707-2.648,6.396L60.702,93.487z M46.579,89.487h8.703l-2.56-8.298l1.164-0.84  c1.324-0.955,2.115-2.492,2.115-4.113c0-2.797-2.275-5.073-5.072-5.073c-2.796,0-5.07,2.276-5.07,5.073  c0,1.621,0.791,3.159,2.115,4.111l1.167,0.84L46.579,89.487z"/></svg>