<?xml version="1.0" ?><svg id="Layer_1" style="enable-background:new 0 0 100 100;" version="1.1" viewBox="0 0 100 100" xml:space="preserve" xmlns="http://www.w3.org/2000/svg" xmlns:xlink="http://www.w3.org/1999/xlink"><g><path d="M50,20.4c-16.3,0-29.6,13.3-29.6,29.6S33.7,79.6,50,79.6c16.3,0,29.6-13.3,29.6-29.6S66.3,20.4,50,20.4z M50,75.3   C36,75.3,24.7,64,24.7,50S36,24.7,50,24.7C64,24.7,75.3,36,75.3,50S64,75.3,50,75.3z"/><path d="M62.2,38.4L43.8,56.8l-8.2-8.2c-0.8-0.8-2.2-0.8-3,0c-0.8,0.8-0.8,2.2,0,3l9.7,9.7c0.4,0.4,0.9,0.6,1.5,0.6   c0.6,0,1.1-0.2,1.5-0.6l19.9-19.9c0.8-0.8,0.8-2.2,0-3C64.4,37.6,63.1,37.6,62.2,38.4z"/></g></svg>