<?xml version="1.0" encoding="UTF-8"?>
<svg width="51px" height="37px" viewBox="0 0 51 37" version="1.1" xmlns="http://www.w3.org/2000/svg" xmlns:xlink="http://www.w3.org/1999/xlink">
    <!-- Generator: Sketch 45 (43475) - http://www.bohemiancoding.com/sketch -->
    <title>Home-_mobile_function_communication</title>
    <desc>Created with Sketch.</desc>
    <defs></defs>
    <g id="How-our-process-works" stroke="none" stroke-width="1" fill="none" fill-rule="evenodd">
        <g id="Desktop-HD-Copy-5" transform="translate(-733.000000, -561.000000)">
            <g id="Group-Copy" transform="translate(733.000000, 562.000000)">
                <g id="Home-_mobile_function_communication">
                    <polygon id="Stroke-1203" stroke-opacity="0.73194067" stroke="#000000" stroke-width="2" stroke-linecap="round" stroke-linejoin="round" points="36.3321262 34.0653389 14.4664252 34.0653389 14.4664252 14.9328505 25.3992757 4 36.3321262 14.9328505"></polygon>
                    <path d="M14.4664252,14.9328505 L9,20.3992757" id="Stroke-1204" stroke-opacity="0.73194067" stroke="#000000" stroke-width="2" stroke-linecap="round" stroke-linejoin="round"></path>
                    <path d="M36.3321262,14.9328505 L41.7985515,20.3992757" id="Stroke-1205" stroke-opacity="0.73194067" stroke="#000000" stroke-width="2" stroke-linecap="round" stroke-linejoin="round"></path>
                    <polygon id="Stroke-1206" stroke-opacity="0.73194067" stroke="#000000" stroke-width="2" stroke-linecap="round" stroke-linejoin="round" points="21.2994568 34.0653389 29.4990947 34.0653389 29.4990947 23.1324884 21.2994568 23.1324884"></polygon>
                    <path d="M9,0 C9,2.211 7.211,4 5,4 C7.211,4 9,5.789 9,8 C9,5.789 10.789,4 13,4 C10.789,4 9,2.211 9,0 L9,0 Z" id="Stroke-2159" stroke-opacity="0.73194067" stroke="#000000" stroke-width="2" stroke-linecap="round" stroke-linejoin="round"></path>
                    <path d="M48,12 L48,8" id="Stroke-2160" stroke-opacity="0.73194067" stroke="#000000" stroke-width="2" stroke-linecap="round"></path>
                    <path d="M46,10 L50,10" id="Stroke-2161" stroke-opacity="0.73194067" stroke="#000000" stroke-width="2" stroke-linecap="round"></path>
                    <path d="M8,35 C8,35.552 7.552,36 7,36 C6.448,36 6,35.552 6,35 C6,34.448 6.448,34 7,34 C7.552,34 8,34.448 8,35" id="Fill-2162" fill-opacity="0.73194067" fill="#000000" fill-rule="nonzero"></path>
                    <path d="M2,18 C2,18.552 1.552,19 1,19 C0.448,19 0,18.552 0,18 C0,17.448 0.448,17 1,17 C1.552,17 2,17.448 2,18" id="Fill-2163" fill-opacity="0.73194067" fill="#000000" fill-rule="nonzero"></path>
                    <path d="M48,31 C48,31.552 47.552,32 47,32 C46.448,32 46,31.552 46,31 C46,30.448 46.448,30 47,30 C47.552,30 48,30.448 48,31" id="Fill-2164" fill-opacity="0.73194067" fill="#000000" fill-rule="nonzero"></path>
                    <path d="M35,1 C35,1.552 34.552,2 34,2 C33.448,2 33,1.552 33,1 C33,0.448 33.448,0 34,0 C34.552,0 35,0.448 35,1" id="Fill-2165" fill-opacity="0.73194067" fill="#000000" fill-rule="nonzero"></path>
                </g>
            </g>
        </g>
    </g>
</svg>