<?xml version="1.0" ?><svg height="46px" version="1.1" viewBox="0 0 60 46" width="60px" xmlns="http://www.w3.org/2000/svg" xmlns:xlink="http://www.w3.org/1999/xlink"><title/><desc/><defs/><g fill="none" fill-rule="evenodd" id="Page-1" stroke="none" stroke-width="1"><g id="Icons" transform="translate(-600.000000, -864.000000)"><g id="45--Friendship--(family,-home,-people)" transform="translate(600.000000, 865.000000)"><path d="M31.1885,2.268 C30.2055,1.382 28.6655,1.52 27.7295,2.456 L21.4885,8.697 C20.2805,9.905 18.3775,10.208 16.9315,9.298 C16.6755,9.137 16.4015,9.003 16.1255,8.874 C15.2675,9.568 14.1895,10 13.0005,10 C11.7995,10 10.7125,9.56 9.8515,8.855 C8.1665,9.622 6.8155,10.838 6.0935,12.552 L1.1465,23 C0.6325,24.222 1.5295,25.572 2.8545,25.572 C3.6265,25.572 4.3175,25.093 4.5895,24.37 L8.0005,17 L8.0005,40.959 C8.0625,42.741 9.0535,43.928 10.3755,43.997 C11.7855,44.071 13.0005,42.394 13.0005,41 C13.0005,42.394 14.1175,44.071 15.5275,43.997 C16.8495,43.928 18.0005,42.324 18.0005,41 L18.0005,21 C18.0005,21 18.0005,19 19.2145,17.991 C22.0875,15.605 25.4405,11.867 28.0475,9.194 L31.2845,5.815 C32.2695,4.83 32.2375,3.212 31.1885,2.268" fill="#FFFFFF" id="Fill-21"/><path d="M31.1885,2.268 C30.2055,1.382 28.6655,1.52 27.7295,2.456 L21.4885,8.697 C20.2805,9.905 18.3775,10.208 16.9315,9.298 C16.6755,9.137 16.4015,9.003 16.1255,8.874 C15.2675,9.568 14.1895,10 13.0005,10 C11.7995,10 10.7125,9.56 9.8515,8.855 C8.1665,9.622 6.8155,10.838 6.0935,12.552 L1.1465,23 C0.6325,24.222 1.5295,25.572 2.8545,25.572 C3.6265,25.572 4.3175,25.093 4.5895,24.37 L8.0005,17 L8.0005,40.959 C8.0625,42.741 9.0535,43.928 10.3755,43.997 C11.7855,44.071 13.0005,42.394 13.0005,41 C13.0005,42.394 14.1175,44.071 15.5275,43.997 C16.8495,43.928 18.0005,42.324 18.0005,41 L18.0005,21 C18.0005,21 18.0005,19 19.2145,17.991 C22.0875,15.605 25.4405,11.867 28.0475,9.194 L31.2845,5.815 C32.2695,4.83 32.2375,3.212 31.1885,2.268 Z" id="Stroke-23" stroke="#0096E6" stroke-linecap="round" stroke-linejoin="round" stroke-width="2"/><path d="M58.8525,23.0004 L53.9065,12.5524 C53.1845,10.8374 51.8325,9.6224 50.1495,8.8544 C49.2875,9.5604 48.2005,10.0004 46.9995,10.0004 C45.8105,10.0004 44.7325,9.5674 43.8745,8.8744 C43.5985,9.0034 43.3245,9.1374 43.0685,9.2984 C41.6225,10.2084 39.7195,9.9044 38.5115,8.6964 L32.2705,2.4564 C31.6625,1.8484 30.8005,1.5834 29.9995,1.7114 C30.4305,1.7804 30.8445,1.9584 31.1885,2.2684 C32.2375,3.2124 32.2695,4.8304 31.2845,5.8154 L29.9995,7.1564 L31.9525,9.1934 C34.5595,11.8664 37.9125,15.6054 40.7855,17.9914 C41.9995,19.0004 41.9995,21.0004 41.9995,21.0004 L41.9995,41.0004 C41.9995,42.3244 43.1505,43.9274 44.4725,43.9974 C45.8825,44.0704 46.9995,42.3944 46.9995,41.0004 C46.9995,42.3944 48.2145,44.0704 49.6245,43.9974 C50.9465,43.9274 51.9375,42.7414 51.9995,40.9594 L51.9995,17.0004 L55.4115,24.3704 C55.6815,25.0924 56.3735,25.5714 57.1455,25.5714 C58.4705,25.5714 59.3675,24.2214 58.8525,23.0004" fill="#FFFFFF" id="Fill-25"/><path d="M58.8525,23.0004 L53.9065,12.5524 C53.1845,10.8374 51.8325,9.6224 50.1495,8.8544 C49.2875,9.5604 48.2005,10.0004 46.9995,10.0004 C45.8105,10.0004 44.7325,9.5674 43.8745,8.8744 C43.5985,9.0034 43.3245,9.1374 43.0685,9.2984 C41.6225,10.2084 39.7195,9.9044 38.5115,8.6964 L32.2705,2.4564 C31.6625,1.8484 30.8005,1.5834 29.9995,1.7114 C30.4305,1.7804 30.8445,1.9584 31.1885,2.2684 C32.2375,3.2124 32.2695,4.8304 31.2845,5.8154 L29.9995,7.1564 L31.9525,9.1934 C34.5595,11.8664 37.9125,15.6054 40.7855,17.9914 C41.9995,19.0004 41.9995,21.0004 41.9995,21.0004 L41.9995,41.0004 C41.9995,42.3244 43.1505,43.9274 44.4725,43.9974 C45.8825,44.0704 46.9995,42.3944 46.9995,41.0004 C46.9995,42.3944 48.2145,44.0704 49.6245,43.9974 C50.9465,43.9274 51.9375,42.7414 51.9995,40.9594 L51.9995,17.0004 L55.4115,24.3704 C55.6815,25.0924 56.3735,25.5714 57.1455,25.5714 C58.4705,25.5714 59.3675,24.2214 58.8525,23.0004 Z" id="Stroke-27" stroke="#0096E6" stroke-linecap="round" stroke-linejoin="round" stroke-width="2"/><path d="M13,28.0004 L13,41.0374" id="Stroke-841" stroke="#0096E6" stroke-linecap="round" stroke-linejoin="round" stroke-width="2"/><path d="M18,5.0004 C18,7.7614 15.761,10.0004 13,10.0004 C10.239,10.0004 8,7.7614 8,5.0004 C8,2.2394 10.239,0.0004 13,0.0004 C15.761,0.0004 18,2.2394 18,5.0004" fill="#D0E8F9" id="Fill-850"/><path d="M18,5.0004 C18,7.7614 15.761,10.0004 13,10.0004 C10.239,10.0004 8,7.7614 8,5.0004 C8,2.2394 10.239,0.0004 13,0.0004 C15.761,0.0004 18,2.2394 18,5.0004 Z" id="Stroke-851" stroke="#0096E6" stroke-linecap="round" stroke-linejoin="round" stroke-width="2"/><path d="M47,28.0004 L47,41.0374" id="Stroke-852" stroke="#0096E6" stroke-linecap="round" stroke-linejoin="round" stroke-width="2"/><path d="M42,5.0004 C42,7.7614 44.239,10.0004 47,10.0004 C49.762,10.0004 52,7.7614 52,5.0004 C52,2.2394 49.762,0.0004 47,0.0004 C44.239,0.0004 42,2.2394 42,5.0004" fill="#D0E8F9" id="Fill-853"/><path d="M42,5.0004 C42,7.7614 44.239,10.0004 47,10.0004 C49.762,10.0004 52,7.7614 52,5.0004 C52,2.2394 49.762,0.0004 47,0.0004 C44.239,0.0004 42,2.2394 42,5.0004 Z" id="Stroke-854" stroke="#0096E6" stroke-linecap="round" stroke-linejoin="round" stroke-width="2"/></g></g></g></svg>