<?xml version="1.0" ?><!DOCTYPE svg  PUBLIC '-//W3C//DTD SVG 1.1//EN'  'http://www.w3.org/Graphics/SVG/1.1/DTD/svg11.dtd'><svg enable-background="new 0 0 64 64" id="Proximo" version="1.1" viewBox="0 0 64 64" xml:space="preserve" xmlns="http://www.w3.org/2000/svg" xmlns:xlink="http://www.w3.org/1999/xlink"><g id="XMLID_48_"><g id="XMLID_88_"><path d="M52,18.77002c-0.55225,0-1-0.44775-1-1V4h-6v7.06006c0,0.55225-0.44775,1-1,1s-1-0.44775-1-1V3    c0-0.55225,0.44775-1,1-1h8c0.55225,0,1,0.44775,1,1v14.77002C53,18.32227,52.55225,18.77002,52,18.77002z" fill="#1D1D1D"/></g><g id="XMLID_67_"><path d="M62.99951,28c-0.22705,0-0.45459-0.07666-0.64209-0.23389L32,2.30518L1.64258,27.76611    c-0.42432,0.35596-1.05469,0.29932-1.40869-0.12354c-0.35498-0.42334-0.2998-1.05371,0.12354-1.40869l31-26    c0.37207-0.31152,0.91309-0.31152,1.28516,0l31,26c0.42334,0.35498,0.47852,0.98535,0.12354,1.40869    C63.56836,27.87842,63.28467,28,62.99951,28z" fill="#1D1D1D"/></g><g id="XMLID_62_"><path d="M63,64H1c-0.55225,0-1-0.44775-1-1s0.44775-1,1-1h62c0.55225,0,1,0.44775,1,1S63.55225,64,63,64z" fill="#1D1D1D"/></g><g id="XMLID_90_"><path d="M57,64c-0.55225,0-1-0.44775-1-1V28.16016c0-0.55225,0.44775-1,1-1s1,0.44775,1,1V63    C58,63.55225,57.55225,64,57,64z" fill="#1D1D1D"/></g><g id="XMLID_91_"><path d="M7,64c-0.55225,0-1-0.44775-1-1V28.16016c0-0.55225,0.44775-1,1-1s1,0.44775,1,1V63    C8,63.55225,7.55225,64,7,64z" fill="#1D1D1D"/></g><g id="XMLID_60_"><path d="M50,64H38c-0.55225,0-1-0.44775-1-1V42.8335c0-0.55225,0.44775-1,1-1h12c0.55225,0,1,0.44775,1,1V63    C51,63.55225,50.55225,64,50,64z M39,62h10V43.8335H39V62z" fill="#1D1D1D"/></g><g id="XMLID_65_"><path d="M29,50H15c-0.55225,0-1-0.44775-1-1V37c0-0.55225,0.44775-1,1-1h14c0.55225,0,1,0.44775,1,1v12    C30,49.55225,29.55225,50,29,50z M16,48h12V38H16V48z" fill="#1D1D1D"/></g><g id="XMLID_70_"><path d="M59.61963,31.37988c-0.22803,0-0.45752-0.07764-0.64551-0.23682L32,8.31006L5.02588,31.14307    C4.604,31.50049,3.97363,31.44775,3.6167,31.02588c-0.35693-0.42139-0.3042-1.05225,0.11719-1.40918L31.354,6.23682    c0.37305-0.31543,0.91895-0.31543,1.29199,0L60.26611,29.6167c0.42139,0.35693,0.47412,0.98779,0.11719,1.40918    C60.18555,31.25977,59.90332,31.37988,59.61963,31.37988z" fill="#1D1D1D"/></g><g id="XMLID_72_"><path d="M4.37988,31.37988c-0.25586,0-0.51172-0.09766-0.70703-0.29297l-3.37988-3.37988    c-0.39063-0.39063-0.39063-1.02344,0-1.41406s1.02344-0.39063,1.41406,0l3.37988,3.37988    c0.39063,0.39063,0.39063,1.02344,0,1.41406C4.8916,31.28223,4.63574,31.37988,4.37988,31.37988z" fill="#1D1D1D"/></g><g id="XMLID_71_"><path d="M59.62012,31.37988c-0.25586,0-0.51172-0.09766-0.70703-0.29297    c-0.39063-0.39063-0.39063-1.02344,0-1.41406l3.37988-3.37988c0.39063-0.39063,1.02344-0.39063,1.41406,0    s0.39063,1.02344,0,1.41406l-3.37988,3.37988C60.13184,31.28223,59.87598,31.37988,59.62012,31.37988z" fill="#1D1D1D"/></g><g id="XMLID_39_"><path d="M22,50c-0.55225,0-1-0.44775-1-1V37c0-0.55225,0.44775-1,1-1s1,0.44775,1,1v12    C23,49.55225,22.55225,50,22,50z" fill="#1D1D1D"/></g><g id="XMLID_45_"><path d="M29,44H15c-0.55225,0-1-0.44775-1-1s0.44775-1,1-1h14c0.55225,0,1,0.44775,1,1S29.55225,44,29,44z" fill="#1D1D1D"/></g><g id="XMLID_49_"><path d="M46,55c-0.26025,0-0.52002-0.11035-0.70996-0.29004C45.10986,54.52002,45,54.25977,45,54    c0-0.26025,0.10986-0.52002,0.29004-0.70996c0.36963-0.37012,1.0498-0.37012,1.41992,0C46.88965,53.47998,47,53.73975,47,54    c0,0.25977-0.11035,0.52002-0.29004,0.70996C46.52002,54.88965,46.25977,55,46,55z" fill="#1D1D1D"/></g><g id="XMLID_14_"><path d="M10,55H7c-0.55225,0-1-0.44775-1-1s0.44775-1,1-1h3c0.55225,0,1,0.44775,1,1S10.55225,55,10,55z" fill="#1D1D1D"/></g><g id="XMLID_15_"><path d="M15,59h-3c-0.55225,0-1-0.44775-1-1s0.44775-1,1-1h3c0.55225,0,1,0.44775,1,1S15.55225,59,15,59z" fill="#1D1D1D"/></g><g id="XMLID_16_"><path d="M32,13c-0.26025,0-0.52002-0.11035-0.70996-0.29004C31.10986,12.52002,31,12.25977,31,12    c0-0.26025,0.10986-0.52002,0.29004-0.70996c0.36963-0.37012,1.0498-0.37012,1.41992,0C32.88965,11.47998,33,11.73975,33,12    c0,0.25977-0.11035,0.52002-0.29004,0.70996C32.52002,12.88965,32.25977,13,32,13z" fill="#1D1D1D"/></g><g id="XMLID_17_"><path d="M32,17c-0.26025,0-0.52002-0.11035-0.70996-0.29004C31.10986,16.52002,31,16.25977,31,16    c0-0.26025,0.10986-0.52002,0.29004-0.70996c0.36963-0.37012,1.0498-0.37012,1.41992,0C32.88965,15.47998,33,15.73975,33,16    c0,0.25977-0.11035,0.52002-0.29004,0.70996C32.52002,16.88965,32.25977,17,32,17z" fill="#1D1D1D"/></g><g id="XMLID_18_"><path d="M36,17c-0.26025,0-0.52002-0.11035-0.70996-0.29004C35.10986,16.52002,35,16.25977,35,16    c0-0.26025,0.10986-0.52002,0.29004-0.70996c0.36963-0.37012,1.0498-0.37012,1.41992,0C36.88965,15.47998,37,15.73975,37,16    c0,0.25977-0.11035,0.52002-0.29004,0.70996C36.52002,16.88965,36.25977,17,36,17z" fill="#1D1D1D"/></g><g id="XMLID_19_"><path d="M28,17c-0.26025,0-0.52002-0.11035-0.70996-0.29004C27.10986,16.52002,27,16.27002,27,16    c0-0.26025,0.10986-0.52002,0.29004-0.70996c0.36963-0.37012,1.0498-0.37012,1.41992,0C28.88965,15.47998,29,15.73975,29,16    c0,0.25977-0.11035,0.52002-0.29004,0.70996C28.52002,16.88965,28.25977,17,28,17z" fill="#1D1D1D"/></g><g id="XMLID_22_"><path d="M32,21c-0.26025,0-0.52002-0.11035-0.70996-0.29004C31.10986,20.52002,31,20.25977,31,20    c0-0.26025,0.10986-0.52002,0.29004-0.70996c0.36963-0.37012,1.0498-0.37012,1.41992,0C32.88965,19.47998,33,19.73975,33,20    c0,0.25977-0.11035,0.52002-0.29004,0.70996C32.52002,20.88965,32.25977,21,32,21z" fill="#1D1D1D"/></g><g id="XMLID_21_"><path d="M36,21c-0.26025,0-0.52002-0.11035-0.70996-0.29004C35.10986,20.52002,35,20.25977,35,20    c0-0.26025,0.10986-0.52002,0.29004-0.70996c0.36963-0.37012,1.0498-0.37012,1.41992,0C36.88965,19.47998,37,19.73975,37,20    c0,0.25977-0.11035,0.52002-0.29004,0.70996C36.52002,20.88965,36.25977,21,36,21z" fill="#1D1D1D"/></g><g id="XMLID_20_"><path d="M28,21c-0.26025,0-0.52002-0.11035-0.70996-0.29004C27.10986,20.52002,27,20.25977,27,20    c0-0.26025,0.10986-0.52002,0.29004-0.70996c0.36963-0.37012,1.0498-0.37012,1.41992,0C28.88965,19.47998,29,19.73975,29,20    c0,0.25977-0.11035,0.52002-0.29004,0.70996C28.52002,20.88965,28.25977,21,28,21z" fill="#1D1D1D"/></g><g id="XMLID_23_"><path d="M40,21c-0.26025,0-0.52002-0.11035-0.70996-0.29004C39.10986,20.52002,39,20.25977,39,20    c0-0.26025,0.10986-0.52002,0.29004-0.70996c0.36963-0.37012,1.0498-0.37012,1.41992,0C40.88965,19.47998,41,19.73975,41,20    c0,0.25977-0.11035,0.52002-0.29004,0.70996C40.52002,20.88965,40.25977,21,40,21z" fill="#1D1D1D"/></g><g id="XMLID_24_"><path d="M24,21c-0.26025,0-0.52002-0.11035-0.70996-0.29004C23.10986,20.52002,23,20.25977,23,20    c0-0.26025,0.10986-0.52002,0.29004-0.70996c0.36963-0.37012,1.0498-0.37012,1.41992,0C24.88965,19.47998,25,19.73975,25,20    c0,0.25977-0.11035,0.52002-0.29004,0.70996C24.52002,20.88965,24.25977,21,24,21z" fill="#1D1D1D"/></g><g id="XMLID_68_"><path d="M36,25c-0.26025,0-0.52002-0.11035-0.70996-0.29004C35.10986,24.52002,35,24.25977,35,24    c0-0.26025,0.10986-0.52002,0.29004-0.70996c0.36963-0.37012,1.0498-0.37012,1.41992,0C36.88965,23.47998,37,23.73975,37,24    c0,0.25977-0.11035,0.52002-0.29004,0.70996C36.52002,24.88965,36.25977,25,36,25z" fill="#1D1D1D"/></g><g id="XMLID_66_"><path d="M28,25c-0.26025,0-0.52002-0.11035-0.70996-0.29004C27.10986,24.52002,27,24.27002,27,24    c0-0.26025,0.10986-0.52002,0.29004-0.70996c0.36963-0.37012,1.0498-0.37012,1.41992,0C28.88965,23.47998,29,23.73975,29,24    c0,0.25977-0.11035,0.52002-0.29004,0.70996C28.52002,24.88965,28.25977,25,28,25z" fill="#1D1D1D"/></g><g id="XMLID_76_"><path d="M44,25c-0.27002,0-0.52002-0.11035-0.70996-0.29004C43.10986,24.52002,43,24.25977,43,24    c0-0.26025,0.10986-0.52002,0.29004-0.70996c0.36963-0.37012,1.03955-0.37012,1.41992,0C44.88965,23.47998,45,23.72998,45,24    c0,0.25977-0.11035,0.52002-0.29004,0.70996C44.52002,24.88965,44.25977,25,44,25z" fill="#1D1D1D"/></g><g id="XMLID_77_"><path d="M20,25c-0.26025,0-0.52002-0.11035-0.70996-0.29004C19.10986,24.52002,19,24.25977,19,24    c0-0.26025,0.10986-0.52002,0.29004-0.70996c0.36963-0.37012,1.0498-0.37012,1.41992,0C20.88965,23.47998,21,23.73975,21,24    c0,0.25977-0.11035,0.52002-0.29004,0.70996C20.52002,24.88965,20.25977,25,20,25z" fill="#1D1D1D"/></g></g></svg>