<?xml version="1.0" ?><svg enable-background="new 0 0 100 100" id="Layer_1" version="1.1" viewBox="0 0 100 100" xml:space="preserve" xmlns="http://www.w3.org/2000/svg" xmlns:xlink="http://www.w3.org/1999/xlink"><g><path d="M46.8,67.1c-10.8,0-19.5-8.7-19.5-19.5c0-10.8,8.7-19.5,19.5-19.5c10.8,0,19.5,8.7,19.5,19.5   C66.3,58.4,57.6,67.1,46.8,67.1z M46.8,31.1c-9.1,0-16.5,7.4-16.5,16.5c0,9.1,7.4,16.5,16.5,16.5c9.1,0,16.5-7.4,16.5-16.5   C63.3,38.5,55.9,31.1,46.8,31.1z" fill="#231F20"/><path d="M71.1,74.1c-0.4,0-0.8-0.1-1.1-0.4L58.1,61.8c-0.6-0.6-0.6-1.5,0-2.1c0.6-0.6,1.5-0.6,2.1,0l11.9,11.9   c0.6,0.6,0.6,1.5,0,2.1C71.9,74,71.5,74.1,71.1,74.1z" fill="#231F20"/></g></svg>