<?xml version="1.0" ?><svg enable-background="new 0 0 100 100" id="Layer_1" version="1.1" viewBox="0 0 100 100" xml:space="preserve" xmlns="http://www.w3.org/2000/svg" xmlns:xlink="http://www.w3.org/1999/xlink"><g><path d="M50.4,75.1c-13.1,0-23.8-10.7-23.8-23.8s10.7-23.8,23.8-23.8c13.1,0,23.8,10.7,23.8,23.8   S63.6,75.1,50.4,75.1z M50.4,30.4c-11.5,0-20.8,9.3-20.8,20.8c0,11.5,9.3,20.8,20.8,20.8c11.5,0,20.8-9.3,20.8-20.8   C71.3,39.7,61.9,30.4,50.4,30.4z" fill="#231F20"/><path d="M48.2,58.3L48.2,58.3c-0.4,0-0.8-0.2-1.1-0.4L42.2,53c-0.6-0.6-0.6-1.5,0-2.1c0.6-0.6,1.5-0.6,2.1,0   l3.8,3.8L57,46c0.6-0.6,1.5-0.6,2.1,0c0.6,0.6,0.6,1.5,0,2.1l-9.8,9.8C49,58.2,48.6,58.3,48.2,58.3z" fill="#231F20"/></g></svg>