<?xml version="1.0" ?><svg enable-background="new 0 0 100 100" id="Layer_1" version="1.1" viewBox="0 0 100 100" xml:space="preserve" xmlns="http://www.w3.org/2000/svg" xmlns:xlink="http://www.w3.org/1999/xlink"><g><path d="M37.6,57.4c-3.4,0-6.2-2.8-6.2-6.2c0-3.4,2.8-6.2,6.2-6.2c3.4,0,6.2,2.8,6.2,6.2   C43.8,54.6,41,57.4,37.6,57.4z M37.6,47.9c-1.8,0-3.2,1.4-3.2,3.2c0,1.8,1.4,3.2,3.2,3.2s3.2-1.4,3.2-3.2   C40.8,49.4,39.3,47.9,37.6,47.9z" fill="#231F20"/><path d="M62.9,42.9c-3.4,0-6.2-2.8-6.2-6.2c0-3.4,2.8-6.2,6.2-6.2s6.2,2.8,6.2,6.2C69.1,40.1,66.3,42.9,62.9,42.9z    M62.9,33.5c-1.8,0-3.2,1.4-3.2,3.2c0,1.8,1.4,3.2,3.2,3.2c1.8,0,3.2-1.4,3.2-3.2C66.1,34.9,64.6,33.5,62.9,33.5z" fill="#231F20"/><path d="M42.2,49.5c-0.5,0-1-0.3-1.3-0.8c-0.4-0.7-0.1-1.6,0.6-2l15.9-9c0.7-0.4,1.6-0.1,2,0.6   c0.4,0.7,0.1,1.6-0.6,2l-15.9,9C42.7,49.5,42.5,49.5,42.2,49.5z" fill="#231F20"/><path d="M62.9,71.8c-3.4,0-6.2-2.8-6.2-6.2c0-3.4,2.8-6.2,6.2-6.2s6.2,2.8,6.2,6.2C69.1,69,66.3,71.8,62.9,71.8z    M62.9,62.4c-1.8,0-3.2,1.4-3.2,3.2s1.4,3.2,3.2,3.2c1.8,0,3.2-1.4,3.2-3.2S64.6,62.4,62.9,62.4z" fill="#231F20"/><path d="M58.1,64.7c-0.2,0-0.5-0.1-0.7-0.2l-15.9-9c-0.7-0.4-1-1.3-0.6-2c0.4-0.7,1.3-1,2-0.6l15.9,9   c0.7,0.4,1,1.3,0.6,2C59.2,64.4,58.7,64.7,58.1,64.7z" fill="#231F20"/></g></svg>