<?xml version="1.0" encoding="UTF-8"?>
<svg width="25px" height="31px" viewBox="0 0 25 31" version="1.1" xmlns="http://www.w3.org/2000/svg" xmlns:xlink="http://www.w3.org/1999/xlink">
    <!-- Generator: Sketch 45.2 (43514) - http://www.bohemiancoding.com/sketch -->
    <title>location_1625849</title>
    <desc>Created with Sketch.</desc>
    <defs></defs>
    <g id="Search" stroke="none" stroke-width="1" fill="none" fill-rule="evenodd" opacity="0.484035326">
        <g id="Desktop-HD-Copy-6" transform="translate(-38.000000, -116.000000)" fill-rule="nonzero" fill="#000000">
            <g id="Search-block" transform="translate(20.000000, 19.000000)">
                <g id="Search" transform="translate(0.000000, 86.000000)">
                    <g id="location_1625849" transform="translate(18.000000, 10.789563)">
                        <path d="M12.4162,30.7866287 C12.1357035,30.7866287 11.8685131,30.66611 11.682535,30.4558142 L3.32132334,20.9895932 L2.77608345,20.3415759 C1.03804526,18.1320161 0.129872898,15.5082881 0.129872898,12.7291706 C0.129872898,5.95443109 5.64161349,0.442843434 12.4162,0.442843434 C19.1906336,0.442843434 24.7022213,5.95458403 24.7022213,12.7291706 C24.7022213,15.508594 23.7940489,18.1326279 22.0763521,20.3167993 L21.5266768,20.9715459 L13.149865,30.4558142 C12.963887,30.66611 12.6966965,30.7866287 12.4162,30.7866287 Z M12.4162,2.400507 C6.72108142,2.400507 2.08753646,7.03389901 2.08753646,12.7291706 C2.08753646,15.0650608 2.85087231,17.2703383 4.29464919,19.1065655 L4.80410055,19.7116059 L12.4162,28.3289962 L20.5574804,19.0817888 C21.9813748,17.2707971 22.7445577,15.0653667 22.7445577,12.7291706 C22.7445577,7.03405195 18.1113186,2.400507 12.4162,2.400507 Z M12.4162,11.2353815 C11.5912284,11.2353815 10.9221051,11.9045048 10.9221051,12.7291706 C10.9221051,13.5544481 11.5912284,14.2235714 12.4162,14.2235714 C13.2411717,14.2235714 13.910295,13.5544481 13.910295,12.7291706 C13.910295,11.9045048 13.2411717,11.2353815 12.4162,11.2353815 Z" id="Shape"></path>
                    </g>
                </g>
            </g>
        </g>
    </g>
</svg>