<?xml version="1.0" ?><!DOCTYPE svg  PUBLIC '-//W3C//DTD SVG 1.1//EN'  'http://www.w3.org/Graphics/SVG/1.1/DTD/svg11.dtd'><svg height="6.72in" style="shape-rendering:geometricPrecision; text-rendering:geometricPrecision; image-rendering:optimizeQuality; fill-rule:evenodd; clip-rule:evenodd" viewBox="0 0 6.72 6.72" width="6.72in" xml:space="preserve" xmlns="http://www.w3.org/2000/svg" xmlns:xlink="http://www.w3.org/1999/xlink"><defs><style type="text/css">
   <![CDATA[
    .fil0 {fill:black;fill-rule:nonzero}
   ]]>
  </style></defs><g id="Layer_x0020_1"><path class="fil0" d="M2.99927 1.65319l0.720236 0c0.330421,0 0.630776,0.135138 0.848484,0.35285 0.217717,0.217717 0.352854,0.518067 0.352854,0.848492l0 1.52394c0,0.409311 -0.167413,0.781378 -0.437118,1.05109 -0.269705,0.269705 -0.641772,0.437114 -1.05108,0.437114l-0.14652 0c-0.409307,0 -0.781378,-0.167409 -1.05108,-0.437114 -0.269709,-0.269709 -0.437118,-0.641776 -0.437118,-1.05109l0 -1.52394c0,-0.330425 0.135138,-0.630776 0.352854,-0.848492 0.217713,-0.217713 0.518063,-0.35285 0.848488,-0.35285zm0.720236 0.107819l-0.720236 0c-0.300661,0 -0.574035,0.123039 -0.77226,0.321264 -0.198224,0.198224 -0.321264,0.471598 -0.321264,0.77226l0 1.52394c0,0.379547 0.155315,0.724642 0.405528,0.974854 0.250217,0.250217 0.595307,0.405528 0.974854,0.405528l0.14652 0c0.379547,0 0.724634,-0.155311 0.97485,-0.405528 0.250213,-0.250213 0.405528,-0.595307 0.405528,-0.974854l0 -1.52394c0,-0.300661 -0.123039,-0.574035 -0.321264,-0.77226 -0.19822,-0.198224 -0.471594,-0.321264 -0.772256,-0.321264z"/><path class="fil0" d="M4.86816 3.29369c0.0297717,0 0.0539094,-0.0241378 0.0539094,-0.0539094 0,-0.0297677 -0.0241378,-0.0539094 -0.0539094,-0.0539094l-3.00224 0c-0.0297677,0 -0.0539094,0.0241417 -0.0539094,0.0539094 0,0.0297717 0.0241417,0.0539094 0.0539094,0.0539094l3.00224 0z"/><path class="fil0" d="M3.40858 1.71942c0,-0.0297717 -0.0241417,-0.0539094 -0.0539094,-0.0539094 -0.0297717,0 -0.0539094,0.0241378 -0.0539094,0.0539094l0 0.290091c0,0.0297677 0.0241378,0.0539094 0.0539094,0.0539094 0.0297677,0 0.0539094,-0.0241417 0.0539094,-0.0539094l0 -0.290091zm-0.00135039 1.21152c0,-0.0297717 -0.0241378,-0.0539094 -0.0539094,-0.0539094 -0.0297717,0 -0.0539094,0.0241378 -0.0539094,0.0539094l0 0.278594c0,0.0297677 0.0241378,0.0539094 0.0539094,0.0539094 0.0297717,0 0.0539094,-0.0241417 0.0539094,-0.0539094l0 -0.278594z"/><path class="fil0" d="M3.3534 1.95951l3.93701e-006 0c0.0612756,0 0.116949,0.0250315 0.157268,0.0653543 0.0403189,0.0403189 0.0653504,0.0959921 0.0653504,0.157268l0 0.571035c0,0.0612756 -0.0250315,0.116945 -0.0653504,0.157268 -0.0403268,0.0403189 -0.0959961,0.0653465 -0.157268,0.0653465l-3.93701e-006 0c-0.0612795,0 -0.116953,-0.0250276 -0.157272,-0.0653465 -0.0403228,-0.0403228 -0.0653543,-0.0959921 -0.0653543,-0.157268l0 -0.571035c0,-0.0612756 0.0250315,-0.116949 0.0653543,-0.157268 0.0403189,-0.0403228 0.0959882,-0.0653543 0.157272,-0.0653543zm3.93701e-006 0.107819l-3.93701e-006 0c-0.0315118,0 -0.0602126,0.0129331 -0.0810394,0.0337677 -0.0208346,0.0208268 -0.0337677,0.0495236 -0.0337677,0.0810354l0 0.571035c0,0.0315118 0.0129331,0.0602087 0.0337677,0.0810354 0.0208268,0.0208268 0.0495276,0.0337598 0.0810394,0.0337598l3.93701e-006 0c0.0315118,0 0.0602047,-0.0129291 0.0810394,-0.0337598 0.0208268,-0.0208268 0.0337598,-0.0495236 0.0337598,-0.0810354l0 -0.571035c0,-0.0315118 -0.0129331,-0.0602087 -0.0337598,-0.0810354 -0.0208307,-0.0208346 -0.0495276,-0.0337677 -0.0810394,-0.0337677z"/><path class="fil0" d="M3.30139 1.72679c0.00406693,0.0294213 0.0312283,0.0499724 0.0606496,0.0459055 0.0294173,-0.00406693 0.0499724,-0.0312244 0.0459055,-0.0606457 -0.000283465,-0.00205512 -0.0927087,-0.715197 -0.771776,-0.857579 -0.0290748,-0.00604724 -0.0575512,0.0126181 -0.0635945,0.0416929 -0.00604724,0.0290709 0.0126181,0.0575472 0.0416929,0.0635945 0.604071,0.126661 0.68687,0.765193 0.687122,0.767031z"/></g></svg>