<?xml version="1.0" encoding="UTF-8"?>
<svg width="75px" height="52px" viewBox="0 0 75 52" version="1.1" xmlns="http://www.w3.org/2000/svg" xmlns:xlink="http://www.w3.org/1999/xlink">
    <!-- Generator: Sketch 46.1 (44463) - http://www.bohemiancoding.com/sketch -->
    <title>Group</title>
    <desc>Created with Sketch.</desc>
    <defs></defs>
    <g id="icons" stroke="none" stroke-width="1" fill="none" fill-rule="evenodd">
        <g id="Desktop-Copy" transform="translate(-101.000000, -29.000000)">
            <g id="Group" transform="translate(100.000000, 29.000000)">
                <g id="person-copy" fill-opacity="0.73194067" fill-rule="nonzero" fill="#000000">
                    <path d="M24.5900079,25.8841713 C18.3542881,25.8841713 13.3657122,20.3413092 13.3657122,13.4127316 C13.3657122,6.484154 18.3542881,0.941291922 24.5900079,0.941291922 C26.8929657,0.941291922 29.0258191,1.69731113 30.800101,2.99994145 C33.8300429,5.22444386 35.8143036,9.04299596 35.8143036,13.4127316 C35.8143036,17.7550188 33.8548928,21.5530252 30.8570746,23.7834137 C29.0715574,25.1118456 26.9176693,25.8841713 24.5900079,25.8841713 Z M24.5900079,3.71272296 C19.8785752,3.71272296 16.1371433,8.00844107 16.1371433,13.4127316 C16.1371433,18.8170221 19.8785752,23.1127402 24.5900079,23.1127402 C26.2172756,23.1127402 27.7288297,22.6002946 29.0104819,21.7067201 C31.439601,20.0131258 33.0428726,16.9504504 33.0428726,13.4127316 C33.0428726,9.84333488 31.41076,6.75752707 28.9450304,5.073578 C27.6774907,4.20792254 26.1896589,3.71272296 24.5900079,3.71272296 Z" id="Shape"></path>
                    <path d="M40.9833465,50.6703194 L9.68697282,50.6703194 C4.76897123,50.6703194 1.93739456,47.3916516 1.19224281,44.1129839 C0.447091053,40.8343162 1.63933386,36.512436 6.11024439,34.4260111 C11.1772763,32.0415255 16.98946,29.8060702 24.5900079,29.8060702 C33.3827986,29.8060702 40.9833465,32.6376469 44.560075,34.4260111 C49.0309855,36.512436 50.2232283,40.6852858 49.4780765,44.1129839 C48.7329248,47.3916516 45.9013481,50.6703194 40.9833465,50.6703194 Z M24.5900079,32.7866772 C17.8836421,32.7866772 12.8166102,34.5750414 7.3024872,37.1085574 C4.17284983,38.5988609 3.57672843,41.4304376 4.02381948,43.3678322 C4.47091053,45.3052267 6.25927474,47.6897123 9.68697282,47.6897123 L40.9833465,47.6897123 C44.4110446,47.6897123 46.1994088,45.3052267 46.6464999,43.3678322 C47.0935909,41.4304376 46.4974695,38.5988609 43.3678322,37.1085574 C39.9401341,35.4692236 32.9357076,32.7866772 24.5900079,32.7866772 Z" id="Shape"></path>
                </g>
                <g id="person-copy-2" transform="translate(18.740666, 0.000000)">
                    <ellipse id="Oval" fill="#FFFFFF" cx="25.2242957" cy="13.4127316" rx="11.7616282" ry="13.0684758"></ellipse>
                    <path d="M26.5900079,25.8841713 C20.3542881,25.8841713 15.3657122,20.3413092 15.3657122,13.4127316 C15.3657122,6.484154 20.3542881,0.941291922 26.5900079,0.941291922 C32.8257278,0.941291922 37.8143036,6.484154 37.8143036,13.4127316 C37.8143036,20.3413092 32.8257278,25.8841713 26.5900079,25.8841713 Z M26.5900079,3.71272296 C21.8785752,3.71272296 18.1371433,8.00844107 18.1371433,13.4127316 C18.1371433,18.8170221 21.8785752,23.1127402 26.5900079,23.1127402 C31.3014407,23.1127402 35.0428726,18.8170221 35.0428726,13.4127316 C35.0428726,8.00844107 31.3014407,3.71272296 26.5900079,3.71272296 Z" id="Shape" fill-opacity="0.73194067" fill="#000000" fill-rule="nonzero"></path>
                    <path d="M13.7593344,32 C19.1851276,31.2397258 23.1851276,30.9063925 25.7593344,31 C28.3335411,31.0936075 33.5002078,31.7602742 41.2593344,33 L41.2593344,49 L16.7593344,49.5 C11.9486485,49.5929367 8.94864849,49.4262701 7.75933436,49 C5.40129168,48.1548381 5.39423733,45.4173403 5.25933436,44.5 C5.02237087,42.8886483 7.8557042,38.7219816 13.7593344,32 Z" id="Rectangle-4" fill="#FFFFFF"></path>
                    <path d="M46.5233423,51.3636498 L10.1469771,51.3636498 C4.43069115,51.3636498 1.13949621,47.5527925 0.27339228,43.7419352 C-0.592711652,39.9310779 0.793054639,34.9076751 5.98967823,32.4825841 C11.879185,29.7110515 18.6347956,27.1127397 27.4690557,27.1127397 C37.6890821,27.1127397 46.5233423,30.4039347 50.6806411,32.4825841 C55.8772647,34.9076751 57.263031,39.7578571 56.3969271,43.7419352 C55.5308231,47.5527925 52.2396282,51.3636498 46.5233423,51.3636498 Z M27.4690557,30.5771555 C19.6741204,30.5771555 13.7846136,32.6558049 7.37544452,35.6005583 C3.73780801,37.3327661 3.04492486,40.6239611 3.56458722,42.8758313 C4.08424958,45.1277015 6.16289902,47.8992341 10.1469771,47.8992341 L46.5233423,47.8992341 C50.5074203,47.8992341 52.5860698,45.1277015 53.1057321,42.8758313 C53.6253945,40.6239611 52.9325113,37.3327661 49.2948748,35.6005583 C45.3107967,33.6951296 37.1694198,30.5771555 27.4690557,30.5771555 Z" id="Shape-Copy" fill="#FFFFFF" fill-rule="nonzero"></path>
                    <path d="M42.9833465,50.6703194 L11.6869728,50.6703194 C6.76897123,50.6703194 3.93739456,47.3916516 3.19224281,44.1129839 C2.44709105,40.8343162 3.63933386,36.512436 8.11024439,34.4260111 C13.1772763,32.0415255 18.98946,29.8060702 26.5900079,29.8060702 C35.3827986,29.8060702 42.9833465,32.6376469 46.560075,34.4260111 C51.0309855,36.512436 52.2232283,40.6852858 51.4780765,44.1129839 C50.7329248,47.3916516 47.9013481,50.6703194 42.9833465,50.6703194 Z M26.5900079,32.7866772 C19.8836421,32.7866772 14.8166102,34.5750414 9.3024872,37.1085574 C6.17284983,38.5988609 5.57672843,41.4304376 6.02381948,43.3678322 C6.47091053,45.3052267 8.25927474,47.6897123 11.6869728,47.6897123 L42.9833465,47.6897123 C46.4110446,47.6897123 48.1994088,45.3052267 48.6464999,43.3678322 C49.0935909,41.4304376 48.4974695,38.5988609 45.3678322,37.1085574 C41.9401341,35.4692236 34.9357076,32.7866772 26.5900079,32.7866772 Z" id="Shape" fill-opacity="0.73194067" fill="#000000" fill-rule="nonzero"></path>
                </g>
            </g>
        </g>
    </g>
</svg>