<?xml version="1.0" ?><svg style="enable-background:new 0 0 64 64;" version="1.1" viewBox="0 0 64 64" xml:space="preserve" xmlns="http://www.w3.org/2000/svg" xmlns:xlink="http://www.w3.org/1999/xlink"><style type="text/css">
	.st0{display:none;}
	.st1{display:inline;}
	.st2{fill:none;stroke:#B3B3B3;stroke-width:0.1;stroke-miterlimit:10;}
	.st3{fill:none;stroke:#000000;stroke-width:2;stroke-miterlimit:10;}
</style><g class="st0" id="Layer_1"><g class="st1"><rect class="st2" height="60" width="60" x="2" y="2"/><line class="st2" x1="32" x2="32" y1="2" y2="62"/><line class="st2" x1="62" x2="2" y1="32" y2="32"/><line class="st2" x1="2" x2="62" y1="2" y2="62"/><rect class="st2" height="44" width="44" x="10" y="10"/><line class="st2" x1="62" x2="2" y1="2" y2="62"/><line class="st2" x1="2" x2="32" y1="32" y2="2"/><line class="st2" x1="32" x2="62" y1="2" y2="32"/><line class="st2" x1="62" x2="32" y1="32" y2="62"/><line class="st2" x1="32" x2="2" y1="62" y2="32"/><circle class="st2" cx="32" cy="32" r="21"/></g></g><g id="Layer_2"><g><path d="M16,10H2V9c0-3.9,3.1-7,7-7s7,3.1,7,7V10z M4.1,8h9.8C13.4,5.7,11.4,4,9,4S4.6,5.7,4.1,8z"/></g><g><path d="M21,62c-3.9,0-7-3.1-7-7V9c0-2.8-2.2-5-5-5V2h34c3.9,0,7,3.1,7,7v5l-2,1V9c0-2.8-2.2-5-5-5H13.9C15.2,5.3,16,7,16,9v46    c0,2.8,2.2,5,5,5s5-2.2,5-5v-1h22V29l2-2v29H27.9C27.4,59.4,24.5,62,21,62z"/></g><g><path d="M55,62H21v-2c2.8,0,5-2.2,5-5v-1h36v1C62,58.9,58.9,62,55,62z M25.9,60H55c2.4,0,4.4-1.7,4.9-4h-32    C27.7,57.6,27,58.9,25.9,60z"/></g><rect height="2" width="24" x="20" y="10"/><rect height="2" width="24" x="20" y="16"/><rect height="2" width="20" x="20" y="22"/><rect height="2" width="24" x="20" y="28"/><rect height="2" width="22" x="20" y="34"/><rect height="2" width="19" x="20" y="40"/><rect height="2" width="18" x="20" y="46"/><path d="M61.1,11.8c-0.5-0.2-1.1,0-1.3,0.5l-1.8-0.8l0.4-1.1c0.8-2-0.1-4.4-2.2-5.2S51.8,5.4,51,7.5l-5.4,13.1l0.9,0.4l-8.8,21.2   L37,51.6l6.2-7.2L52,23.2l0.9,0.4l4.2-10.2l1.8,0.8l-4.6,11.1c-0.2,0.5,0,1.1,0.5,1.3s1.1,0,1.3-0.5l5.4-12.9   C61.8,12.6,61.6,12,61.1,11.8z M39.4,45.8l0.1-1.9l1.1,0.5L39.4,45.8z M41.8,42.8L39.9,42l8.4-20.3l1.8,0.8L41.8,42.8z M51.9,21   l-3.7-1.5l4.7-11.2c0.4-1,1.6-1.5,2.6-1.1c1,0.4,1.5,1.6,1.1,2.6L51.9,21z"/></g></svg>