<?xml version="1.0" encoding="UTF-8"?>
<svg width="82px" height="68px" viewBox="0 0 82 68" version="1.1" xmlns="http://www.w3.org/2000/svg" xmlns:xlink="http://www.w3.org/1999/xlink">
    <!-- Generator: Sketch 45.1 (43504) - http://www.bohemiancoding.com/sketch -->
    <title>1499353221_less_Is_More_V1.0-31</title>
    <desc>Created with Sketch.</desc>
    <defs></defs>
    <g id="Page-1" stroke="none" stroke-width="1" fill="none" fill-rule="evenodd">
        <g id="1499353221_less_Is_More_V1.0-31">
            <path d="M79.79,0.47 L2.21,0.47 C1.1054305,0.47 0.21,1.3654305 0.21,2.47 L0.21,56.3 C0.21,57.4045695 1.1054305,58.3 2.21,58.3 L79.79,58.3 C80.8945695,58.3 81.79,57.4045695 81.79,56.3 L81.79,2.47 C81.79,1.3654305 80.8945695,0.47 79.79,0.47 Z M77.79,54.31 L4.21,54.31 L4.21,4.47 L77.79,4.47 L77.79,54.3 L77.79,54.31 Z M56.46,65.53 C56.46,66.6345695 55.5645695,67.53 54.46,67.53 L27.54,67.53 C26.4354305,67.53 25.54,66.6345695 25.54,65.53 C25.54,64.4254305 26.4354305,63.53 27.54,63.53 L54.46,63.53 C55.5645695,63.53 56.46,64.4254305 56.46,65.53 Z" id="Shape" fill="#000000" fill-rule="nonzero"></path>
            <g id="Group" transform="translate(21.000000, 16.000000)" stroke="#443027" stroke-width="2" stroke-linejoin="round">
                <path d="M14.5561575,20.7278219 C17.9964055,17.0477306 23.5716153,17.0477306 27.0118633,20.7278219" id="Shape"></path>
                <path d="M7.51007876,15.3028434 C14.8415237,7.46027304 26.7264971,7.46027304 34.057942,15.3028434" id="Shape"></path>
                <path d="M0.464,9.00353713 C11.686642,-3.00151238 29.8813788,-3.00151238 41.1040208,9.00353713" id="Shape"></path>
                <ellipse id="Oval" cx="20.7848912" cy="26.3808039" rx="1.76151969" ry="1.88432734"></ellipse>
            </g>
        </g>
    </g>
</svg>