<?xml version="1.0" encoding="UTF-8"?>
<svg width="60px" height="44px" viewBox="0 0 60 44" version="1.1" xmlns="http://www.w3.org/2000/svg" xmlns:xlink="http://www.w3.org/1999/xlink">
    <!-- Generator: Sketch 45.1 (43504) - http://www.bohemiancoding.com/sketch -->
    <title>Family-_family_home_people</title>
    <desc>Created with Sketch.</desc>
    <defs></defs>
    <g id="Page-1" stroke="none" stroke-width="1" fill="none" fill-rule="evenodd">
        <g id="Family-_family_home_people" transform="translate(1.000000, 1.000000)">
            <path d="M48,13.0004 C48,15.2094 46.209,17.0004 44,17.0004 C41.791,17.0004 40,15.2094 40,13.0004 C40,10.7914 41.791,9.0004 44,9.0004 C46.209,9.0004 48,10.7914 48,13.0004" id="Fill-49" fill="#FFFFFF" fill-rule="nonzero"></path>
            <path d="M48,13.0004 C48,15.2094 46.209,17.0004 44,17.0004 C41.791,17.0004 40,15.2094 40,13.0004 C40,10.7914 41.791,9.0004 44,9.0004 C46.209,9.0004 48,10.7914 48,13.0004 Z" id="Stroke-51" stroke="#666666" stroke-linecap="round" stroke-linejoin="round"></path>
            <path d="M21.0078,5.0004 C21.0078,7.7614 23.2458,10.0004 26.0078,10.0004 C28.7688,10.0004 31.0078,7.7614 31.0078,5.0004 C31.0078,2.2394 28.7688,0.0004 26.0078,0.0004 C23.2458,0.0004 21.0078,2.2394 21.0078,5.0004" id="Fill-53" fill="#FFFFFF" fill-rule="nonzero"></path>
            <path d="M21.0078,5.0004 C21.0078,7.7614 23.2458,10.0004 26.0078,10.0004 C28.7688,10.0004 31.0078,7.7614 31.0078,5.0004 C31.0078,2.2394 28.7688,0.0004 26.0078,0.0004 C23.2458,0.0004 21.0078,2.2394 21.0078,5.0004 Z" id="Stroke-55" stroke="#666666" stroke-linecap="round" stroke-linejoin="round"></path>
            <path d="M6,5.0004 C6,7.7614 8.239,10.0004 11,10.0004 C13.761,10.0004 16,7.7614 16,5.0004 C16,2.2394 13.761,0.0004 11,0.0004 C8.239,0.0004 6,2.2394 6,5.0004" id="Fill-57" fill="#FFFFFF" fill-rule="nonzero"></path>
            <path d="M6,5.0004 C6,7.7614 8.239,10.0004 11,10.0004 C13.761,10.0004 16,7.7614 16,5.0004 C16,2.2394 13.761,0.0004 11,0.0004 C8.239,0.0004 6,2.2394 6,5.0004 Z" id="Stroke-59" stroke="#666666" stroke-linecap="round" stroke-linejoin="round"></path>
            <path d="M22.0078,40.0004 C22.0078,41.1044 22.9038,42.0004 24.0078,42.0004 C25.1118,42.0004 26.0078,41.1044 26.0078,40.0004 C26.0078,41.1044 26.9038,42.0004 28.0078,42.0004 C29.1118,42.0004 30.0078,41.1044 30.0078,40.0004 L30.0058,27.0134 L31.8368,27.0194 C32.4508,27.0214 32.9218,26.4744 32.8288,25.8674 L31.6348,18.1044 L33.2108,20.9894 C33.8418,22.0914 35.3978,22.9964 36.6678,23.0004 C37.6948,23.0034 38.3308,21.1414 37.8208,20.2504 L32.0718,10.1134 C31.4938,9.0934 30.5708,9.0634 29.4988,8.5734 C28.5968,9.4534 27.3678,10.0004 26.0078,10.0004 C24.6508,10.0004 23.4238,9.4554 22.5228,8.5774 C21.4988,9.0634 20.5818,9.0564 20.0068,10.0564 L14.1728,20.2244 C13.6558,21.1114 14.3278,23.0004 15.3548,23.0044 C16.6248,23.0084 18.1868,22.1134 18.8248,21.0154 L20.4338,18.0674 L19.1908,25.8424 C19.0938,26.4504 19.5638,27.0004 20.1788,27.0004 L22.0058,27.0004 L22.0078,40.0004 Z" id="Fill-61" fill="#FFFFFF" fill-rule="nonzero"></path>
            <path d="M22.0078,40.0004 C22.0078,41.1044 22.9038,42.0004 24.0078,42.0004 C25.1118,42.0004 26.0078,41.1044 26.0078,40.0004 C26.0078,41.1044 26.9038,42.0004 28.0078,42.0004 C29.1118,42.0004 30.0078,41.1044 30.0078,40.0004 L30.0058,27.0134 L31.8368,27.0194 C32.4508,27.0214 32.9218,26.4744 32.8288,25.8674 L31.6348,18.1044 L33.2108,20.9894 C33.8418,22.0914 35.3978,22.9964 36.6678,23.0004 C37.6948,23.0034 38.3308,21.1414 37.8208,20.2504 L32.0718,10.1134 C31.4938,9.0934 30.5708,9.0634 29.4988,8.5734 C28.5968,9.4534 27.3678,10.0004 26.0078,10.0004 C24.6508,10.0004 23.4238,9.4554 22.5228,8.5774 C21.4988,9.0634 20.5818,9.0564 20.0068,10.0564 L14.1728,20.2244 C13.6558,21.1114 14.3278,23.0004 15.3548,23.0044 C16.6248,23.0084 18.1868,22.1134 18.8248,21.0154 L20.4338,18.0674 L19.1908,25.8424 C19.0938,26.4504 19.5638,27.0004 20.1788,27.0004 L22.0058,27.0004 L22.0078,40.0004 Z" id="Stroke-63" stroke="#666666" stroke-linecap="round" stroke-linejoin="round"></path>
            <path d="M14.1724,20.224 L15.0004,18.782 L15.5434,17.834 L17.9524,13.636 L16.6834,11.495 C15.9434,10.397 14.8684,9.623 13.6304,9.253 C12.8694,9.722 11.9634,10 11.0034,10 C10.0434,10 9.1324,9.723 8.3714,9.254 C7.1344,9.624 6.0634,10.396 5.3224,11.494 L0.3694,19.842 C-0.2696,20.742 -0.0586,21.991 0.8414,22.631 C1.7424,23.27 2.9904,23.059 3.6304,22.159 L7.0004,17 L7.0004,40 C7.0004,41.105 7.8954,42 9.0004,42 C10.1044,42 11.0004,41.105 11.0004,40 C11.0004,41.105 11.8954,42 13.0004,42 C14.1044,42 15.0004,41.105 15.0004,40 L15.0004,22.923 C14.1834,22.556 13.7184,21.004 14.1724,20.224" id="Fill-65" fill="#FFFFFF" fill-rule="nonzero"></path>
            <path d="M14.1724,20.224 L15.0004,18.782 L15.5434,17.834 L17.9524,13.636 L16.6834,11.495 C15.9434,10.397 14.8684,9.623 13.6304,9.253 C12.8694,9.722 11.9634,10 11.0034,10 C10.0434,10 9.1324,9.723 8.3714,9.254 C7.1344,9.624 6.0634,10.396 5.3224,11.494 L0.3694,19.842 C-0.2696,20.742 -0.0586,21.991 0.8414,22.631 C1.7424,23.27 2.9904,23.059 3.6304,22.159 L7.0004,17 L7.0004,40 C7.0004,41.105 7.8954,42 9.0004,42 C10.1044,42 11.0004,41.105 11.0004,40 C11.0004,41.105 11.8954,42 13.0004,42 C14.1044,42 15.0004,41.105 15.0004,40 L15.0004,22.923 C14.1834,22.556 13.7184,21.004 14.1724,20.224 Z" id="Stroke-67" stroke="#666666" stroke-linecap="round" stroke-linejoin="round"></path>
            <path d="M57.2617,25.3359 L48.1597,17.1449 C48.0537,17.0479 47.9427,16.9579 47.8277,16.8709 L46.8907,16.1689 C46.8117,16.0969 46.7247,16.0459 46.6437,15.9819 C45.9377,16.6079 45.0187,17.0009 43.9997,17.0009 C42.9807,17.0009 42.0607,16.6069 41.3547,15.9799 C41.2737,16.0449 41.1877,16.0969 41.1097,16.1689 C40.3847,16.7119 39.5207,17.0409 38.6177,17.1159 L36.1587,17.3199 L37.8207,20.2509 C37.9637,20.5009 38.0087,20.8279 37.9877,21.1679 L39.9997,21.0009 L39.9997,39.8929 C39.9997,40.8899 40.6807,41.8129 41.6637,41.9729 C42.9167,42.1769 43.9997,41.2149 43.9997,40.0009 C43.9997,41.2149 45.0827,42.1769 46.3357,41.9729 C47.3197,41.8129 47.9997,40.8899 47.9997,39.8929 L47.9997,23.0009 L54.2137,28.5919 C55.4017,29.6619 57.0797,29.4279 57.7707,27.9869 C58.2247,27.0399 57.9767,25.9799 57.2617,25.3359" id="Fill-69" fill="#FFFFFF" fill-rule="nonzero"></path>
            <path d="M57.2617,25.3359 L48.1597,17.1449 C48.0537,17.0479 47.9427,16.9579 47.8277,16.8709 L46.8907,16.1689 C46.8117,16.0969 46.7247,16.0459 46.6437,15.9819 C45.9377,16.6079 45.0187,17.0009 43.9997,17.0009 C42.9807,17.0009 42.0607,16.6069 41.3547,15.9799 C41.2737,16.0449 41.1877,16.0969 41.1097,16.1689 C40.3847,16.7119 39.5207,17.0409 38.6177,17.1159 L36.1587,17.3199 L37.8207,20.2509 C37.9637,20.5009 38.0087,20.8279 37.9877,21.1679 L39.9997,21.0009 L39.9997,39.8929 C39.9997,40.8899 40.6807,41.8129 41.6637,41.9729 C42.9167,42.1769 43.9997,41.2149 43.9997,40.0009 C43.9997,41.2149 45.0827,42.1769 46.3357,41.9729 C47.3197,41.8129 47.9997,40.8899 47.9997,39.8929 L47.9997,23.0009 L54.2137,28.5919 C55.4017,29.6619 57.0797,29.4279 57.7707,27.9869 C58.2247,27.0399 57.9767,25.9799 57.2617,25.3359 Z" id="Stroke-71" stroke="#666666" stroke-linecap="round" stroke-linejoin="round"></path>
            <path d="M44,30.0004 L44,40.0004" id="Stroke-358" stroke="#666666" stroke-linecap="round" stroke-linejoin="round"></path>
            <path d="M11,30.0004 L11,40.0004" id="Stroke-501" stroke="#666666" stroke-linecap="round" stroke-linejoin="round"></path>
            <path d="M26,32.0004 L26,40.0004" id="Stroke-502" stroke="#666666" stroke-linecap="round" stroke-linejoin="round"></path>
        </g>
    </g>
</svg>