<?xml version="1.0" ?><svg style="enable-background:new 0 0 64 64;" version="1.1" viewBox="0 0 64 64" xml:space="preserve" xmlns="http://www.w3.org/2000/svg" xmlns:xlink="http://www.w3.org/1999/xlink"><style type="text/css">
	.st0{display:none;}
	.st1{display:inline;}
	.st2{fill:none;stroke:#B3B3B3;stroke-width:0.1;stroke-miterlimit:10;}
	.st3{fill:none;stroke:#000000;stroke-width:2;stroke-miterlimit:10;}
</style><g class="st0" id="Layer_1"><g class="st1"><rect class="st2" height="60" width="60" x="2" y="2"/><line class="st2" x1="32" x2="32" y1="2" y2="62"/><line class="st2" x1="62" x2="2" y1="32" y2="32"/><line class="st2" x1="2" x2="62" y1="2" y2="62"/><rect class="st2" height="44" width="44" x="10" y="10"/><line class="st2" x1="62" x2="2" y1="2" y2="62"/><line class="st2" x1="2" x2="32" y1="32" y2="2"/><line class="st2" x1="32" x2="62" y1="2" y2="32"/><line class="st2" x1="62" x2="32" y1="32" y2="62"/><line class="st2" x1="32" x2="2" y1="62" y2="32"/><circle class="st2" cx="32" cy="32" r="21"/></g></g><g id="Layer_2"><rect height="2" width="2" x="46" y="60"/><rect height="2" width="2" x="16" y="60"/><g><polygon points="16,52 18,52 18,26 8.6,26 32,4.4 55.4,26 46,26 46,52 48,52 48,28 60.6,28 32,1.6 3.4,28 16,28   "/><rect height="4" width="2" x="46" y="54"/><rect height="4" width="2" x="16" y="54"/></g><g><path d="M35,58h-6c-3.3,0-6-2.7-6-6v-1h2v1c0,2.2,1.8,4,4,4h6c2.2,0,4-1.8,4-4v-2c0-2.2-1.8-4-4-4h-6c-3.3,0-6-2.7-6-6v-2    c0-3.3,2.7-6,6-6h6c3.3,0,6,2.7,6,6v1h-2v-1c0-2.2-1.8-4-4-4h-6c-2.2,0-4,1.8-4,4v2c0,2.2,1.8,4,4,4h6c3.3,0,6,2.7,6,6v2    C41,55.3,38.3,58,35,58z"/></g><rect height="34" width="2" x="31" y="28"/></g></svg>