<?xml version="1.0" ?><!DOCTYPE svg  PUBLIC '-//W3C//DTD SVG 1.1//EN'  'http://www.w3.org/Graphics/SVG/1.1/DTD/svg11.dtd'><svg height="2048px" style="shape-rendering:geometricPrecision; text-rendering:geometricPrecision; image-rendering:optimizeQuality; fill-rule:evenodd; clip-rule:evenodd" viewBox="0 0 2048 2048" width="2048px" xml:space="preserve" xmlns="http://www.w3.org/2000/svg" xmlns:xlink="http://www.w3.org/1999/xlink"><defs><style type="text/css">
   <![CDATA[
    .fil1 {fill:none}
    .fil0 {fill:black;fill-rule:nonzero}
   ]]>
  </style></defs><g id="Layer_x0020_1"><g id="_206546192"><path class="fil0" d="M776 429.768l496.001 0c13.2543,0 24,10.7457 24,24l0 1140.46c0,13.2543 -10.7457,24 -24,24l-496.001 0c-13.2543,0 -24,-10.7457 -24,-24l0 -1140.46c0,-13.2543 10.7457,-24 24,-24zm472.001 48l-448.001 0 0 1092.46 448.001 0 0 -1092.46z" id="_206547440"/><path class="fil0" d="M1272 739.346l496 0c13.2543,0 24,10.7457 24,24l0 830.886c0,13.2543 -10.7457,24 -24,24l-496 0c-13.2543,0 -24,-10.7457 -24,-24l0 -830.886c0,-13.2543 10.7457,-24 24,-24zm472 48l-448 0 0 782.886 448 0 0 -782.886z" id="_206547296"/><path class="fil0" d="M279.999 671.864l496 0c13.2543,0 24,10.7457 24,24l0 898.368c0,13.2543 -10.7457,24 -24,24l-496 0c-13.2543,0 -24,-10.7457 -24,-24l0 -898.368c0,-13.2543 10.7457,-24 24,-24zm472 48l-448 0 0 850.368 448 0 0 -850.368z" id="_206547224"/><path class="fil0" d="M361.485 815.688l121.469 0c13.2543,0 24,10.7457 24,24l0 121.469c0,13.2543 -10.7457,24 -24,24l-121.469 0c-13.2543,0 -24,-10.7457 -24,-24l0 -121.469c0,-13.2543 10.7457,-24 24,-24zm97.4694 48l-73.4693 0 0 73.4693 73.4693 0 0 -73.4693z" id="_206547632"/><path class="fil0" d="M573.044 815.688l121.469 0c13.2543,0 24,10.7457 24,24l0 121.469c0,13.2543 -10.7457,24 -24,24l-121.469 0c-13.2543,0 -24,-10.7457 -24,-24l0 -121.469c0,-13.2543 10.7457,-24 24,-24zm97.4694 48l-73.4693 0 0 73.4693 73.4693 0 0 -73.4693z" id="_206547608"/><path class="fil0" d="M361.485 1060.31l121.469 0c13.2543,0 24,10.7457 24,24l0 121.469c0,13.2543 -10.7457,24 -24,24l-121.469 0c-13.2543,0 -24,-10.7457 -24,-24l0 -121.469c0,-13.2543 10.7457,-24 24,-24zm97.4694 48l-73.4693 0 0 73.4693 73.4693 0 0 -73.4693z" id="_206547152"/><path class="fil0" d="M573.044 1060.31l121.469 0c13.2543,0 24,10.7457 24,24l0 121.469c0,13.2543 -10.7457,24 -24,24l-121.469 0c-13.2543,0 -24,-10.7457 -24,-24l0 -121.469c0,-13.2543 10.7457,-24 24,-24zm97.4694 48l-73.4693 0 0 73.4693 73.4693 0 0 -73.4693z" id="_206547368"/><path class="fil0" d="M361.485 1304.94l121.469 0c13.2543,0 24,10.7457 24,24l0 121.469c0,13.2543 -10.7457,24 -24,24l-121.469 0c-13.2543,0 -24,-10.7457 -24,-24l0 -121.469c0,-13.2543 10.7457,-24 24,-24zm97.4694 48l-73.4693 0 0 73.4693 73.4693 0 0 -73.4693z" id="_206547512"/><path class="fil0" d="M573.044 1304.94l121.469 0c13.2543,0 24,10.7457 24,24l0 121.469c0,13.2543 -10.7457,24 -24,24l-121.469 0c-13.2543,0 -24,-10.7457 -24,-24l0 -121.469c0,-13.2543 10.7457,-24 24,-24zm97.4694 48l-73.4693 0 0 73.4693 73.4693 0 0 -73.4693z" id="_206547056"/><path class="fil0" d="M857.486 569.796l121.469 0c13.2543,0 24,10.7457 24,24l0 121.469c0,13.2543 -10.7457,24 -24,24l-121.469 0c-13.2543,0 -24,-10.7457 -24,-24l0 -121.469c0,-13.2543 10.7457,-24 24,-24zm97.4694 48l-73.4693 0 0 73.4693 73.4693 0 0 -73.4693z" id="_206547008"/><path class="fil0" d="M1069.04 569.796l121.469 0c13.2543,0 24,10.7457 24,24l0 121.469c0,13.2543 -10.7457,24 -24,24l-121.469 0c-13.2543,0 -24,-10.7457 -24,-24l0 -121.469c0,-13.2543 10.7457,-24 24,-24zm97.4694 48l-73.4693 0 0 73.4693 73.4693 0 0 -73.4693z" id="_206547704"/><path class="fil0" d="M857.486 816.108l121.469 0c13.2543,0 24,10.7457 24,24l0 121.471c0,13.2543 -10.7457,24 -24,24l-121.469 0c-13.2543,0 -24,-10.7457 -24,-24l0 -121.471c0,-13.2543 10.7457,-24 24,-24zm97.4694 48l-73.4693 0 0 73.4705 73.4693 0 0 -73.4705z" id="_206547488"/><path class="fil0" d="M1069.04 816.108l121.469 0c13.2543,0 24,10.7457 24,24l0 121.471c0,13.2543 -10.7457,24 -24,24l-121.469 0c-13.2543,0 -24,-10.7457 -24,-24l0 -121.471c0,-13.2543 10.7457,-24 24,-24zm97.4694 48l-73.4693 0 0 73.4705 73.4693 0 0 -73.4705z" id="_206547536"/><path class="fil0" d="M857.486 1062.42l121.469 0c13.2543,0 24,10.7457 24,24l0 121.469c0,13.2543 -10.7457,24 -24,24l-121.469 0c-13.2543,0 -24,-10.7457 -24,-24l0 -121.469c0,-13.2543 10.7457,-24 24,-24zm97.4694 48l-73.4693 0 0 73.4693 73.4693 0 0 -73.4693z" id="_206547680"/><path class="fil0" d="M1069.04 1062.42l121.469 0c13.2543,0 24,10.7457 24,24l0 121.469c0,13.2543 -10.7457,24 -24,24l-121.469 0c-13.2543,0 -24,-10.7457 -24,-24l0 -121.469c0,-13.2543 10.7457,-24 24,-24zm97.4694 48l-73.4693 0 0 73.4693 73.4693 0 0 -73.4693z" id="_206547344"/><path class="fil0" d="M857.486 1308.73l121.469 0c13.2543,0 24,10.7457 24,24l0 121.469c0,13.2543 -10.7457,24 -24,24l-121.469 0c-13.2543,0 -24,-10.7457 -24,-24l0 -121.469c0,-13.2543 10.7457,-24 24,-24zm97.4694 48l-73.4693 0 0 73.4693 73.4693 0 0 -73.4693z" id="_206547128"/><path class="fil0" d="M1069.04 1308.73l121.469 0c13.2543,0 24,10.7457 24,24l0 121.469c0,13.2543 -10.7457,24 -24,24l-121.469 0c-13.2543,0 -24,-10.7457 -24,-24l0 -121.469c0,-13.2543 10.7457,-24 24,-24zm97.4694 48l-73.4693 0 0 73.4693 73.4693 0 0 -73.4693z" id="_206546312"/><path class="fil0" d="M1353.49 849.428l121.469 0c13.2543,0 24,10.7457 24,24l0 121.469c0,13.2543 -10.7457,24 -24,24l-121.469 0c-13.2543,0 -24,-10.7457 -24,-24l0 -121.469c0,-13.2543 10.7457,-24 24,-24zm97.4694 48l-73.4693 0 0 73.4693 73.4693 0 0 -73.4693z" id="_206546360"/><path class="fil0" d="M1565.05 849.428l121.469 0c13.2543,0 24,10.7457 24,24l0 121.469c0,13.2543 -10.7457,24 -24,24l-121.469 0c-13.2543,0 -24,-10.7457 -24,-24l0 -121.469c0,-13.2543 10.7457,-24 24,-24zm97.4694 48l-73.4693 0 0 73.4693 73.4693 0 0 -73.4693z" id="_206546672"/><path class="fil0" d="M1353.49 1094.05l121.469 0c13.2543,0 24,10.7457 24,24l0 121.469c0,13.2543 -10.7457,24 -24,24l-121.469 0c-13.2543,0 -24,-10.7457 -24,-24l0 -121.469c0,-13.2543 10.7457,-24 24,-24zm97.4694 48l-73.4693 0 0 73.4693 73.4693 0 0 -73.4693z" id="_206546648"/><path class="fil0" d="M1565.05 1094.05l121.469 0c13.2543,0 24,10.7457 24,24l0 121.469c0,13.2543 -10.7457,24 -24,24l-121.469 0c-13.2543,0 -24,-10.7457 -24,-24l0 -121.469c0,-13.2543 10.7457,-24 24,-24zm97.4694 48l-73.4693 0 0 73.4693 73.4693 0 0 -73.4693z" id="_206546600"/><path class="fil0" d="M1353.49 1338.68l121.469 0c13.2543,0 24,10.7457 24,24l0 121.469c0,13.2543 -10.7457,24 -24,24l-121.469 0c-13.2543,0 -24,-10.7457 -24,-24l0 -121.469c0,-13.2543 10.7457,-24 24,-24zm97.4694 48l-73.4693 0 0 73.4693 73.4693 0 0 -73.4693z" id="_206546408"/><path class="fil0" d="M1565.05 1338.68l121.469 0c13.2543,0 24,10.7457 24,24l0 121.469c0,13.2543 -10.7457,24 -24,24l-121.469 0c-13.2543,0 -24,-10.7457 -24,-24l0 -121.469c0,-13.2543 10.7457,-24 24,-24zm97.4694 48l-73.4693 0 0 73.4693 73.4693 0 0 -73.4693z" id="_206546792"/></g></g><rect class="fil1" height="2048" width="2048"/></svg>