<?xml version="1.0" encoding="UTF-8"?>
<svg width="26px" height="25px" viewBox="0 0 26 25" version="1.1" xmlns="http://www.w3.org/2000/svg" xmlns:xlink="http://www.w3.org/1999/xlink">
    <!-- Generator: Sketch 45.2 (43514) - http://www.bohemiancoding.com/sketch -->
    <title>calendar_1625853</title>
    <desc>Created with Sketch.</desc>
    <defs></defs>
    <g id="Search" stroke="none" stroke-width="1" fill="none" fill-rule="evenodd" opacity="0.531080163">
        <g id="Desktop-HD-Copy-6" transform="translate(-612.000000, -117.000000)" fill-rule="nonzero" fill="#000000">
            <g id="Search-block" transform="translate(20.000000, 19.000000)">
                <g id="Search" transform="translate(0.000000, 86.000000)">
                    <g id="calendar_1625853" transform="translate(592.000000, 12.000000)">
                        <path d="M24.9154515,3.87340685 L19.8485798,3.87340685 L19.8485798,1.59065449 C19.8485798,1.14299637 19.4856652,0.779955018 19.038007,0.779955018 C18.5902223,0.779955018 18.2273076,1.14299637 18.2273076,1.59065449 L18.2273076,3.87340685 L8.09343753,3.87340685 L8.09343753,1.59065449 C8.09343753,1.14299637 7.73039617,0.779955018 7.28273806,0.779955018 C6.83495327,0.779955018 6.47203859,1.14299637 6.47203859,1.59065449 L6.47203859,3.87340685 L1.4051669,3.87340685 C0.957382117,3.87340685 0.594467433,4.23644821 0.594467433,4.68410632 L0.594467433,23.2450707 C0.594467433,23.6928555 0.957508789,24.0557702 1.4051669,24.0557702 L24.9154515,24.0557702 C25.3631096,24.0557702 25.726151,23.6928555 25.726151,23.2450707 L25.726151,4.68410632 C25.726151,4.23644821 25.3631096,3.87340685 24.9154515,3.87340685 Z M6.47203859,5.49480579 L6.47203859,7.1590198 C6.47203859,7.60667791 6.83495327,7.96971927 7.28273806,7.96971927 C7.73039617,7.96971927 8.09343753,7.60667791 8.09343753,7.1590198 L8.09343753,5.49480579 L18.2271809,5.49480579 L18.2271809,7.1590198 C18.2271809,7.60667791 18.5900956,7.96971927 19.0378804,7.96971927 C19.4855385,7.96971927 19.8484532,7.60667791 19.8484532,7.1590198 L19.8484532,5.49480579 L24.1047521,5.49480579 L24.1047521,10.6791022 L2.21586637,10.6791022 L2.21586637,5.49480579 L6.47203859,5.49480579 Z M2.21586637,22.4343712 L2.21586637,12.3003745 L24.1047521,12.3003745 L24.1047521,22.4343712 L2.21586637,22.4343712 Z" id="Shape"></path>
                    </g>
                </g>
            </g>
        </g>
    </g>
</svg>