<?xml version="1.0" ?><!DOCTYPE svg  PUBLIC '-//W3C//DTD SVG 1.1//EN'  'http://www.w3.org/Graphics/SVG/1.1/DTD/svg11.dtd'><svg height="100%" style="shape-rendering:geometricPrecision; text-rendering:geometricPrecision; image-rendering:optimizeQuality; fill-rule:evenodd; clip-rule:evenodd" viewBox="0 0 2.70912 2.70912" width="100%" xml:space="preserve" xmlns="http://www.w3.org/2000/svg" xmlns:xlink="http://www.w3.org/1999/xlink"><defs><style type="text/css">
   <![CDATA[
    .str2 {stroke:#333333;stroke-width:0.08467;stroke-linecap:round;stroke-linejoin:round}
    .str0 {stroke:#333333;stroke-width:0.08467;stroke-linecap:round;stroke-linejoin:round}
    .str1 {stroke:#333333;stroke-width:0.08467;stroke-linecap:round;stroke-linejoin:round;stroke-dasharray:0.084670 0.169340}
    .fil0 {fill:none}
    .fil2 {fill:#333333}
    .fil1 {fill:#333333;fill-rule:nonzero}
   ]]>
  </style></defs><g id="图层_x0020_1"><rect class="fil0" height="2.70912" width="2.70912"/><g id="_200658072"><path class="fil1" d="M0.2728 0.33591l2.16352 0c0.03154,0 0.05976,0.01463 0.0798,0.03819 0.00102,0.00121 0.00198,0.00247 0.00286,0.00374 0.01646,0.02102 0.02656,0.04849 0.02656,0.07802l0 1.29538c0,0.03127 -0.01132,0.06023 -0.02953,0.08167l0.00011 9e-005c-0.02004,0.02356 -0.04826,0.03819 -0.0798,0.03819l-0.10814 0 0 -0.09596 0.10814 0c0.00214,0 0.00456,-0.00157 0.0067,-0.00409l0.00011 9e-005 8e-005 -9e-005c0.00392,-0.00461 0.00637,-0.01162 0.00637,-0.0199l0 -1.29538c0,-0.00737 -0.00194,-0.01374 -0.00514,-0.01831l-0.00142 -0.00159c-0.00214,-0.00252 -0.00456,-0.00409 -0.0067,-0.00409l-2.16352 0c-0.00215,0 -0.00456,0.00157 -0.0067,0.00409l-0.00011 -9e-005 -8e-005 9e-005c-0.00392,0.00461 -0.00637,0.01163 -0.00637,0.0199l0 1.29538c0,0.00738 0.00194,0.01375 0.00514,0.01831l0.00142 0.00159c0.00214,0.00252 0.00455,0.00409 0.0067,0.00409l1.20878 0 0 0.09596 -1.20878 0c-0.03153,0 -0.05976,-0.01463 -0.0798,-0.03819 -0.00102,-0.00121 -0.00198,-0.00247 -0.00286,-0.00374 -0.01646,-0.02102 -0.02656,-0.04849 -0.02656,-0.07802l0 -1.29538c0,-0.03127 0.01132,-0.06023 0.02953,-0.08167l-0.00011 -9e-005c0.02004,-0.02356 0.04827,-0.03819 0.0798,-0.03819z" id="_201052448"/><line class="fil0 str0" id="_200650512" x1="0.2196" x2="2.47074" y1="0.72257" y2="0.72257"/><line class="fil0 str0" id="_201055208" x1="0.2196" x2="2.47074" y1="0.97644" y2="0.97644"/><line class="fil0 str1" id="_203968280" x1="0.22806" x2="1.48092" y1="1.48468" y2="1.48468"/><path class="fil0 str2" d="M1.48158 1.61121l0.8466 0 0 0.58563c0,0.09695 -0.09529,0.17637 -0.21165,0.17637l-0.4233 0c-0.11636,0 -0.21165,-0.07937 -0.21165,-0.17637l0 -0.58563z" id="_200655144"/><path class="fil0 str2" d="M1.90488 1.1754l0 0c0.13991,0 0.25437,0.11446 0.25437,0.25437l0 0.18144 -0.50874 0 0 -0.18144c0,-0.13991 0.11446,-0.25437 0.25437,-0.25437z" id="_200657904"/><g><circle class="fil2" cx="1.90488" cy="1.89852" id="_200346272" r="0.08466"/><path class="fil1" d="M1.94718 2.12821c0,0.02338 -0.01896,0.04234 -0.04234,0.04234 -0.02338,0 -0.04234,-0.01896 -0.04234,-0.04234l0 -0.20382c0,-0.02338 0.01896,-0.04234 0.04234,-0.04234 0.02338,0 0.04234,0.01896 0.04234,0.04234l0 0.20382z" id="_200659080"/></g></g></g></svg>