<?xml version="1.0" ?><svg id="Layer_1" style="enable-background:new 0 0 50 50;" version="1.1" viewBox="0 0 50 50" xml:space="preserve" xmlns="http://www.w3.org/2000/svg" xmlns:xlink="http://www.w3.org/1999/xlink"><g><path d="M48.4,23.9C42.2,15.6,33.9,11.1,25,11.1S7.8,15.7,1.6,23.9c-0.5,0.7-0.5,1.5,0,2.2C7.8,34.4,16.1,38.9,25,38.9c0,0,0,0,0,0   c8.9,0,17.2-4.5,23.4-12.8C48.9,25.4,48.9,24.6,48.4,23.9z M25,35.2c-7.3,0-14.2-3.6-19.6-10.2c5.4-6.6,12.3-10.2,19.6-10.2   c7.3,0,14.2,3.6,19.6,10.2C39.2,31.6,32.3,35.2,25,35.2z"/><path d="M25,18.5c-3.6,0-6.5,2.9-6.5,6.5s2.9,6.5,6.5,6.5s6.5-2.9,6.5-6.5S28.6,18.5,25,18.5z M25,27.8c-1.5,0-2.8-1.3-2.8-2.8   s1.3-2.8,2.8-2.8c1.5,0,2.8,1.3,2.8,2.8S26.5,27.8,25,27.8z"/></g></svg>