<?xml version="1.0" ?><!DOCTYPE svg  PUBLIC '-//W3C//DTD SVG 1.1//EN'  'http://www.w3.org/Graphics/SVG/1.1/DTD/svg11.dtd'><svg height="2048px" style="shape-rendering:geometricPrecision; text-rendering:geometricPrecision; image-rendering:optimizeQuality; fill-rule:evenodd; clip-rule:evenodd" viewBox="0 0 2048 2048" width="2048px" xml:space="preserve" xmlns="http://www.w3.org/2000/svg" xmlns:xlink="http://www.w3.org/1999/xlink"><defs><style type="text/css">
   <![CDATA[
    .fil1 {fill:none}
    .fil0 {fill:black;fill-rule:nonzero}
   ]]>
  </style></defs><g id="Layer_x0020_1"><path class="fil0" d="M780.941 1409.21l226.446 -217.717c9.33426,-8.97875 24.0697,-8.87599 33.2811,0.0933072l0.00944883 0.00944883 0.144095 0.13937 223.983 217.569 0.153543 0.153543 6.8126 6.09686c5.27363,4.71851 7.95945,11.2512 7.96182,17.8122l0.100394 0 0 322.33c0,13.2543 -10.7457,24 -24,24l-463.666 0c-13.2543,0 -24,-10.7457 -24,-24l0 -324.073c0,-7.4256 3.37441,-14.0646 8.67166,-18.4665l4.10197 -3.94607zm242.955 -167.183l-207.729 199.722 0 289.947 415.666 0 0 -287.697 -0.403937 -0.382677 -207.533 -201.59z"/><path class="fil0" d="M963.081 1535.7l121.839 0c13.2543,0 24,10.7457 24,24l0 196.297c0,13.2543 -10.7457,24 -24,24l-121.839 0c-13.2543,0 -24,-10.7457 -24,-24l0 -196.297c0,-13.2543 10.7457,-24 24,-24zm97.8391 48l-73.839 0 0 148.297 73.839 0 0 -148.297z"/><path class="fil0" d="M716.571 1411.32c-9.57757,9.11221 -24.7311,8.73426 -33.8433,-0.843308 -9.11221,-9.57757 -8.73426,-24.7311 0.843308,-33.8433l323.929 -307.609c9.2882,-8.83701 23.8193,-8.74725 33,0l323.929 307.609c9.57757,9.11221 9.95552,24.2658 0.843308,33.8433 -9.11221,9.57757 -24.2658,9.95552 -33.8433,0.843308l-307.429 -291.94 -307.429 291.94z"/><path class="fil0" d="M1081.96 970.836c9.62953,-3.12992 14.8984,-13.4764 11.7685,-23.1059 -3.1311,-9.63072 -13.4776,-14.8996 -23.1071,-11.7685 -21.3614,7.01221 -44.5902,13.8685 -65.5075,16.3595 -18.1795,2.16378 -34.239,1.08662 -44.4355,-6.39095 -35.2689,-25.8638 -244.504,-201.39 -290.346,-239.893l74.8158 -287.132 22.5461 -8.67166c103.225,3.65315 156.311,-1.67717 196.015,-5.66575 68.9268,-6.92481 95.4627,-9.58229 297.299,53.2099l121.049 284.692c-3.93662,2.61851 -7.87678,5.28189 -11.8217,7.98426 -7.49764,5.13662 -15.8114,11.0055 -24.6981,17.3882 -8.20394,5.90552 -10.0665,17.3445 -4.16221,25.5473 5.90434,8.20394 17.3433,10.0665 25.5461,4.16221 7.34056,-5.27126 15.2504,-10.8354 23.9799,-16.8154 7.61221,-5.21457 15.2516,-10.3039 22.9288,-15.2374 8.14253,-4.49528 11.7248,-14.5146 8.0067,-23.2595l-16.9063 7.18819 16.8638 -7.17638 -129.885 -305.47c-1.8437,-5.31496 -6.09804,-9.71812 -11.8807,-11.5252l-5.47914 17.5335 5.45433 -17.5099c-216.246,-67.5768 -244.597,-64.728 -319.882,-57.1654 -38.967,3.913 -91.1576,9.15473 -193.278,5.44489 -2.87244,-0.343701 -5.87008,-0.0129921 -8.75906,1.09843l0.0307087 0.080315 -33.2114 12.7736c-6.10867,1.69252 -11.1744,6.50315 -12.8882,13.0772l17.7768 4.63229 -17.7248 -4.59213 -79.7127 305.921c-2.46142,7.00512 -0.50315,15.1051 5.51693,20.1614l11.8169 -14.0646 -11.7697 14.0646c0.746457,0.628347 260.181,218.786 301.087,248.783 18.9095,13.8685 43.7929,16.4492 70.4127,13.2791 23.8878,-2.8441 49.33,-10.3181 72.541,-17.9374z"/><path class="fil0" d="M912.636 406.909c5.62678,-8.40119 3.37677,-19.7764 -5.02441,-25.4032 -8.40119,-5.62678 -19.7764,-3.37677 -25.4032,5.02441 -0.349607,0.522048 -123.343,181.732 -17.9551,231.157l-0.0307087 0.0649607c0.641339,0.3 1.28976,0.559843 1.94528,0.780709 41.6209,17.3433 73.5993,-6.1878 108.47,-31.8555 49.4233,-36.3792 106.389,-78.3107 210.414,52.6796l-0.0283465 0.022441c0.698032,0.87756 1.45866,1.67362 2.27126,2.38819 12.4795,12.7677 136.906,140.513 150.897,173.159 2.54528,5.94095 3.17599,12.6898 1.89567,19.1232 -1.15984,5.83347 -3.92481,11.2913 -8.2819,15.45 -4.48937,4.28386 -10.8685,7.36182 -19.2024,8.32323 -11.2547,1.29685 -25.6524,-1.09252 -43.3831,-8.92442l-142.694 -142.693c-7.17284,-7.17284 -18.8043,-7.17284 -25.9772,0 -7.17284,7.17284 -7.17284,18.8043 0,25.9772l144.566 144.566c1.54134,1.62638 3.40985,2.99764 5.56418,4.00276l0.0307087 -0.0649607c25.9229,12.0945 48.0213,15.6697 66.0556,13.5898 16.8591,-1.94528 30.3201,-8.70237 40.3004,-18.2268 10.1126,-9.65079 16.461,-21.9851 19.0453,-34.9677 2.67638,-13.4504 1.27913,-27.7418 -4.19174,-40.5083 -16.8154,-39.2363 -148.204,-173.974 -158.689,-184.691 -125.661,-157.831 -197.73,-104.8 -260.263,-58.7693 -26.0303,19.1599 -49.9099,36.7347 -72.5906,27.6473 -0.184252,-0.0933072 -0.370866,-0.186614 -0.559843,-0.275197l-0.0165354 0.034252 -0.387402 -0.161811c-65.5878,-31.4622 32.9433,-177.03 33.2244,-177.449z"/><path class="fil0" d="M1056.18 786.208c-7.4504,-6.85512 -19.0512,-6.37323 -25.9063,1.07717 -6.85512,7.4504 -6.37323,19.05 1.07717,25.9051l134.851 124.479c12.4453,11.4898 33.4122,18.9791 53.563,18.939 11.6752,-0.0236221 23.3528,-2.44134 33.4264,-7.87914 10.9807,-5.92678 19.9642,-15.1748 25.0996,-28.428 5.92441,-15.2906 6.28347,-35.6528 -2.47795,-61.9371 -3.17008,-9.59056 -13.5165,-14.7957 -23.1071,-11.6256 -9.58938,3.17008 -14.7957,13.5165 -11.6244,23.1071 5.78504,17.3587 6.10512,29.3705 3.05315,37.2508 -1.67717,4.32638 -4.65355,7.3689 -8.30906,9.34253 -4.56378,2.4626 -10.2071,3.55985 -16.0606,3.57166 -11.3622,0.022441 -22.6051,-3.66496 -28.7339,-9.32363l-134.851 -124.479z"/><path class="fil0" d="M1016.05 869.526c-7.213,-7.09371 -18.8114,-6.99804 -25.9051,0.214961 -7.09253,7.213 -6.99686,18.8114 0.214961,25.9051l94.2284 91.5438 12.8445 -13.0595 -12.8599 13.1173c1.65473,1.62402 3.54095,2.86772 5.54882,3.73819 13.7327,7.35473 101.702,49.9418 111.483,-60.8977 0.870473,-10.1055 -6.61536,-19.0063 -16.7209,-19.878 -10.1055,-0.870473 -19.0063,6.61536 -19.878,16.7209 -4.88032,55.3252 -46.9595,37.239 -56.5252,32.3776l-92.4308 -89.7827z"/><path class="fil0" d="M556.5 269.863l160.071 42.8918c14.641,3.92363 26.341,13.4658 33.3933,25.6795l0 0.0708662c7.05709,12.2256 9.48308,27.1134 5.57363,41.7071l-95.7367 357.294c-3.92363,14.6421 -13.4669,26.341 -25.6795,33.3922l-0.0708662 0c-12.228,7.05827 -27.1146,9.48426 -41.7083,5.57481l-160.07 -42.8906c-14.6421,-3.92363 -26.3421,-13.4669 -33.3933,-25.6795l0 -0.0720473c-7.05827,-12.2268 -9.48426,-27.1134 -5.57481,-41.7071l95.7367 -357.293c3.92363,-14.6421 13.4669,-26.3421 25.6795,-33.3933l0.0720473 0c12.2256,-7.05827 27.1146,-9.48426 41.7071,-5.57481zm150.599 78.3414l-160.071 -42.8918c-4.90158,-1.31339 -9.87993,-0.522048 -13.9547,1.81181l0.0188977 0.0307087c-4.09607,2.36575 -7.29449,6.27402 -8.60079,11.1484l-95.7367 357.294c-1.31339,4.90158 -0.520867,9.87875 1.81181,13.9524l0.0307087 -0.0177165c2.36575,4.09607 6.27402,7.29331 11.1484,8.60079l160.07 42.8906c4.90276,1.31339 9.88111,0.522048 13.9547,-1.81181l-0.0177165 -0.0307087c4.09607,-2.36457 7.29331,-6.27284 8.59961,-11.1484l95.7367 -357.293c1.31339,-4.90276 0.522048,-9.87993 -1.81181,-13.9536l-0.0307087 0.0177165c-2.36457,-4.09607 -6.27284,-7.29331 -11.1473,-8.59961z"/><path class="fil0" d="M1445.7 329.432l-151.8 66.4749c-4.58504,2.00788 -7.95355,5.7567 -9.68032,10.1752 -1.72795,4.42205 -1.78819,9.48072 0.236221,14.1059l148.378 338.833c2.00906,4.58622 5.75788,7.95355 10.1764,9.68032 4.42205,1.72795 9.48072,1.78937 14.1047,-0.236221l151.801 -66.4749c4.58504,-2.00788 7.95355,-5.7567 9.67914,-10.1764 1.72914,-4.42205 1.78937,-9.48072 -0.23504,-14.1047l-148.38 -338.833c-2.00788,-4.58504 -5.7567,-7.95237 -10.1752,-9.68032 -4.42205,-1.72795 -9.48072,-1.78819 -14.1059,0.236221zm-166.439 32.8902l151.8 -66.4749c13.8862,-6.07914 28.9725,-5.93623 42.091,-0.809056 13.1221,5.12953 24.3166,15.2764 30.4134,29.1992l148.378 338.833c6.08032,13.8839 5.93741,28.9725 0.809056,42.091 -5.12835,13.1209 -15.2752,24.3154 -29.1981,30.4122l-151.801 66.4749c-13.8851,6.08032 -28.9713,5.93859 -42.091,0.809056 -13.1209,-5.12835 -24.3154,-15.2752 -30.4122,-29.1981l-148.378 -338.833c-6.08032,-13.8862 -5.93859,-28.9725 -0.809056,-42.091 5.12835,-13.1221 15.2752,-24.3154 29.1981,-30.4134z"/></g><rect class="fil1" height="2048" width="2048"/></svg>