<?xml version="1.0" ?><svg height="60px" version="1.1" viewBox="0 0 60 60" width="60px" xmlns="http://www.w3.org/2000/svg" xmlns:xlink="http://www.w3.org/1999/xlink"><title/><desc/><defs/><g fill="none" fill-rule="evenodd" id="Page-1" stroke="none" stroke-width="1"><g id="Icons" transform="translate(-120.000000, -370.000000)"><g id="1--Love--(family,-home,-people)" transform="translate(121.000000, 371.000000)"><polygon fill="#D0E8F9" id="Fill-206" points="0 58 58 58 58 54 0 54"/><polygon id="Stroke-207" points="0 58 58 58 58 54 0 54" stroke="#0096E6" stroke-linecap="round" stroke-linejoin="round" stroke-width="2"/><polygon fill="#FFFFFF" id="Fill-208" points="51 27.0004 29 7.0004 7 28.0004 6 28.0004 6 54.0004 52 54.0004 52 27.0004"/><polygon id="Stroke-209" points="51 27.0004 29 7.0004 7 28.0004 6 28.0004 6 54.0004 52 54.0004 52 27.0004" stroke="#0096E6" stroke-linecap="round" stroke-linejoin="round" stroke-width="2"/><polygon fill="#D0E8F9" id="Fill-210" points="58 27.0004 29 0.0004 0 28.0004 7 28.0004 29 7.0004 51 27.0004"/><polygon id="Stroke-211" points="58 27.0004 29 0.0004 0 28.0004 7 28.0004 29 7.0004 51 27.0004" stroke="#0096E6" stroke-linecap="round" stroke-linejoin="round" stroke-width="2"/><polygon fill="#FFFFFF" id="Fill-212" points="6 4 16 4 16 0 6 0"/><polygon id="Stroke-213" points="6 4 16 4 16 0 6 0" stroke="#0096E6" stroke-linecap="round" stroke-linejoin="round" stroke-width="2"/><polygon fill="#D0E8F9" id="Fill-214" points="14 14.4833 14 4.0003 8 4.0003 8 20.2763"/><polygon id="Stroke-215" points="14 14.4833 14 4.0003 8 4.0003 8 20.2763" stroke="#0096E6" stroke-linecap="round" stroke-linejoin="round" stroke-width="2"/><path d="M36,24.0004 C32.426,24.0004 30.13,26.1414 29,29.0004 C27.87,26.1414 25.574,24.0004 22,24.0004 C14.341,24.0004 11.297,32.7654 16.834,38.8454 C18.303,40.4584 24.291,46.2754 27.237,49.2684 C27.718,49.7564 28.359,50.0004 29,50.0004 C29.641,50.0004 30.282,49.7564 30.763,49.2684 C33.709,46.2754 39.698,40.4594 41.166,38.8454 C46.706,32.7534 43.659,24.0004 36,24.0004" fill="#D0E8F9" id="Fill-216"/><path d="M36,24.0004 C32.426,24.0004 30.13,26.1414 29,29.0004 C27.87,26.1414 25.574,24.0004 22,24.0004 C14.341,24.0004 11.297,32.7654 16.834,38.8454 C18.303,40.4584 24.291,46.2754 27.237,49.2684 C27.718,49.7564 28.359,50.0004 29,50.0004 C29.641,50.0004 30.282,49.7564 30.763,49.2684 C33.709,46.2754 39.698,40.4594 41.166,38.8454 C46.706,32.7534 43.659,24.0004 36,24.0004 Z" id="Stroke-217" stroke="#0096E6" stroke-linecap="round" stroke-linejoin="round" stroke-width="2"/></g></g></g></svg>