<?xml version="1.0" ?><svg data-name="Layer 1" id="Layer_1" viewBox="0 0 27.44531 46.83594" xmlns="http://www.w3.org/2000/svg"><title/><path d="M3400.45508,1384.3991a12.38655,12.38655,0,0,1-12.373-12.37207v-15.05469a12.373,12.373,0,1,1,24.74609,0V1372.027A12.38655,12.38655,0,0,1,3400.45508,1384.3991Zm0-37.79981a10.38478,10.38478,0,0,0-10.373,10.373V1372.027a10.373,10.373,0,0,0,20.74609,0v-15.05469A10.38478,10.38478,0,0,0,3400.45508,1346.5993Z" transform="translate(-3385.38281 -1337.56317)"/><path d="M3400.45508,1357.72723a2.31227,2.31227,0,0,1-2.30957-2.30957v-3.92676a2.30908,2.30908,0,1,1,4.61816,0v3.92676A2.31143,2.31143,0,0,1,3400.45508,1357.72723Zm0-6.5459a0.30966,0.30966,0,0,0-.30957.30957v3.92676a0.30908,0.30908,0,1,0,.61816,0v-3.92676A0.30946,0.30946,0,0,0,3400.45508,1351.18133Z" transform="translate(-3385.38281 -1337.56317)"/><path d="M3400.45508,1346.5993a0.99943,0.99943,0,0,1-1-1,6.03613,6.03613,0,1,0-12.07226,0,1,1,0,0,1-2,0,8.03613,8.03613,0,1,1,16.07226,0A0.99942,0.99942,0,0,1,3400.45508,1346.5993Z" transform="translate(-3385.38281 -1337.56317)"/></svg>