<?xml version="1.0" encoding="UTF-8"?>
<svg width="49px" height="51px" viewBox="0 0 49 51" version="1.1" xmlns="http://www.w3.org/2000/svg" xmlns:xlink="http://www.w3.org/1999/xlink">
    <!-- Generator: Sketch 46.1 (44463) - http://www.bohemiancoding.com/sketch -->
    <title>person</title>
    <desc>Created with Sketch.</desc>
    <defs></defs>
    <g id="icons" stroke="none" stroke-width="1" fill="none" fill-rule="evenodd" fill-opacity="0.73194067">
        <g id="Desktop-Copy" transform="translate(-32.000000, -29.000000)" fill-rule="nonzero" fill="#000000">
            <g id="person" transform="translate(31.000000, 29.000000)">
                <path d="M24.5900079,25.8841713 C18.3542881,25.8841713 13.3657122,20.3413092 13.3657122,13.4127316 C13.3657122,6.484154 18.3542881,0.941291922 24.5900079,0.941291922 C30.8257278,0.941291922 35.8143036,6.484154 35.8143036,13.4127316 C35.8143036,20.3413092 30.8257278,25.8841713 24.5900079,25.8841713 Z M24.5900079,3.71272296 C19.8785752,3.71272296 16.1371433,8.00844107 16.1371433,13.4127316 C16.1371433,18.8170221 19.8785752,23.1127402 24.5900079,23.1127402 C29.3014407,23.1127402 33.0428726,18.8170221 33.0428726,13.4127316 C33.0428726,8.00844107 29.3014407,3.71272296 24.5900079,3.71272296 Z" id="Shape"></path>
                <path d="M40.9833465,50.6703194 L9.68697282,50.6703194 C4.76897123,50.6703194 1.93739456,47.3916516 1.19224281,44.1129839 C0.447091053,40.8343162 1.63933386,36.512436 6.11024439,34.4260111 C11.1772763,32.0415255 16.98946,29.8060702 24.5900079,29.8060702 C33.3827986,29.8060702 40.9833465,32.6376469 44.560075,34.4260111 C49.0309855,36.512436 50.2232283,40.6852858 49.4780765,44.1129839 C48.7329248,47.3916516 45.9013481,50.6703194 40.9833465,50.6703194 Z M24.5900079,32.7866772 C17.8836421,32.7866772 12.8166102,34.5750414 7.3024872,37.1085574 C4.17284983,38.5988609 3.57672843,41.4304376 4.02381948,43.3678322 C4.47091053,45.3052267 6.25927474,47.6897123 9.68697282,47.6897123 L40.9833465,47.6897123 C44.4110446,47.6897123 46.1994088,45.3052267 46.6464999,43.3678322 C47.0935909,41.4304376 46.4974695,38.5988609 43.3678322,37.1085574 C39.9401341,35.4692236 32.9357076,32.7866772 24.5900079,32.7866772 Z" id="Shape"></path>
            </g>
        </g>
    </g>
</svg>