<?xml version="1.0" ?><!DOCTYPE svg  PUBLIC '-//W3C//DTD SVG 1.1//EN'  'http://www.w3.org/Graphics/SVG/1.1/DTD/svg11.dtd'><svg height="2048px" style="shape-rendering:geometricPrecision; text-rendering:geometricPrecision; image-rendering:optimizeQuality; fill-rule:evenodd; clip-rule:evenodd" viewBox="0 0 2048 2048" width="2048px" xml:space="preserve" xmlns="http://www.w3.org/2000/svg" xmlns:xlink="http://www.w3.org/1999/xlink"><defs><style type="text/css">
   <![CDATA[
    .fil1 {fill:none}
    .fil0 {fill:black;fill-rule:nonzero}
   ]]>
  </style></defs><g id="Layer_x0020_1"><g id="_206528384"><path class="fil0" d="M713.476 255.999l857.026 0c23.1638,0 44.2063,9.45946 59.4437,24.6981 15.2386,15.2374 24.6981,36.2799 24.6981,59.4437l0 1138.94c0,23.1626 -9.45946,44.2052 -24.6981,59.4426 -15.2374,15.2374 -36.2799,24.6969 -59.4437,24.6969l-563.324 0c-13.2543,0 -24,-10.7457 -24,-24 0,-8.17087 4.08426,-15.3862 10.3217,-19.7209 2.50276,-2.09055 4.85788,-4.13622 7.05827,-6.13111 2.40591,-2.18032 5.14016,-4.79882 8.21103,-7.86733l-0.046063 -0.0472441c45.3969,-45.3969 68.0977,-104.904 68.0977,-164.411 0,-59.5063 -22.6996,-119.012 -68.0977,-164.411 -45.3992,-45.3981 -104.904,-68.0989 -164.411,-68.0989 -59.5052,0 -119.013,22.702 -164.41,68.0989 -2.42953,2.42953 -3.88465,3.9 -4.4126,4.45866l-0.269292 0.27874c-0.967324,1.02756 -2.33858,2.52992 -4.07481,4.46457 -8.85355,9.83741 -24.0059,10.6347 -33.8433,1.7811 -5.25591,-4.73032 -7.92875,-11.2571 -7.93111,-17.8122l-0.0377953 0 0 -829.664c0,-23.1638 9.45946,-44.2063 24.6981,-59.4437 15.2374,-15.2386 36.2799,-24.6981 59.4437,-24.6981zm857.026 48l-857.026 0c-9.913,0 -18.9437,4.07363 -25.5059,10.6358 -6.56221,6.56221 -10.6358,15.5929 -10.6358,25.5059l0 775.47c49.4363,-36.7134 108.209,-55.076 166.978,-55.076 71.7863,0 143.575,27.3886 198.349,82.1611 54.7725,54.7737 82.1599,126.562 82.1599,198.349 0,61.65 -20.2004,123.302 -60.5977,174.177l506.279 0c9.913,0 18.9449,-4.07363 25.5059,-10.6347 6.56221,-6.56221 10.6358,-15.5929 10.6358,-25.5047l0 -1138.94c0,-9.913 -4.07363,-18.9437 -10.6358,-25.5059 -6.56221,-6.56221 -15.5929,-10.6358 -25.5059,-10.6358z" id="_206528936"/><path class="fil0" d="M997.384 1159.19c-13.2543,0 -24,-10.7457 -24,-24 0,-13.2543 10.7457,-24 24,-24l427.295 0c13.2543,0 24,10.7457 24,24 0,13.2543 -10.7457,24 -24,24l-427.295 0z" id="_206528528"/><path class="fil0" d="M1086.83 1281.36c-13.2543,0 -24,-10.7457 -24,-24 0,-13.2543 10.7457,-24 24,-24l337.844 0c13.2543,0 24,10.7457 24,24 0,13.2543 -10.7457,24 -24,24l-337.844 0z" id="_206529080"/><path class="fil0" d="M1097.92 1403.52c-13.2543,0 -24,-10.7457 -24,-24 0,-13.2543 10.7457,-24 24,-24l326.757 0c13.2543,0 24,10.7457 24,24 0,13.2543 -10.7457,24 -24,24l-326.757 0z" id="_206528000"/><path class="fil0" d="M946.615 672.814l196.188 -188.626c9.33426,-8.97875 24.0709,-8.87599 33.2811,0.0933072l0.00944883 0.00944883 0.144095 0.13937 194.033 188.477 0.154725 0.153543 5.78032 5.17441c5.27363,4.71851 7.95945,11.2512 7.96182,17.8122l0.100394 0 0 279.259c0,13.2543 -10.7457,24 -24,24l-401.71 0c-13.2543,0 -24,-10.7457 -24,-24l0 -280.77c0,-7.4256 3.37441,-14.0658 8.67166,-18.4677l3.38504 -3.25512zm212.698 -138.091l-176.754 169.941 0 246.643 353.71 0 0 -244.695 -176.955 -171.888z" id="_206527952"/><path class="fil0" d="M1106.63 781.507l105.558 0c13.2543,0 24,10.7457 24,24l0 170.068c0,13.2543 -10.7457,24 -24,24l-105.558 0c-13.2543,0 -24,-10.7457 -24,-24l0 -170.068c0,-13.2543 10.7457,-24 24,-24zm81.5575 48l-57.5575 0 0 122.068 57.5575 0 0 -122.068z" id="_206527976"/><path class="fil0" d="M895.268 685.47c-9.57757,9.11221 -24.7311,8.73426 -33.8433,-0.843308 -9.11221,-9.57757 -8.73426,-24.7311 0.843308,-33.8433l280.645 -266.505c9.2882,-8.83701 23.8193,-8.74725 33,0l280.645 266.505c9.57757,9.11221 9.95552,24.2658 0.843308,33.8433 -9.11221,9.57757 -24.2658,9.95552 -33.8433,0.843308l-264.145 -250.837 -264.145 250.837z" id="_206527784"/><path class="fil0" d="M1042.66 1142.7c54.7737,54.7737 82.1611,126.562 82.1611,198.349 0,71.7839 -27.3874,143.575 -82.1611,198.347l-0.0011811 0.0011811c-54.7725,54.7725 -126.562,82.1599 -198.346,82.1599 -71.7863,0 -143.574,-27.3874 -198.347,-82.1599l-0.0011811 -0.0011811c-54.7725,-54.7725 -82.1599,-126.563 -82.1599,-198.347 0,-71.7863 27.3874,-143.575 82.1599,-198.349l0.0011811 -0.0011811c54.7725,-54.7725 126.563,-82.1599 198.347,-82.1599 71.7839,0 143.574,27.3874 198.346,82.1599l0.0011811 0.0011811zm34.161 198.349c0,-59.5063 -22.7008,-119.013 -68.0989,-164.411l-0.0011811 -0.0011811c-45.3969,-45.3969 -104.903,-68.0977 -164.408,-68.0977 -59.5052,0 -119.013,22.7008 -164.41,68.0977l-0.0011811 0.0011811c-45.3981,45.3992 -68.0977,104.904 -68.0977,164.411 0,59.5052 22.7008,119.013 68.0977,164.41l0.0011811 0.0011811c45.3992,45.3981 104.903,68.0977 164.41,68.0977 59.5052,0 119.012,-22.7008 164.408,-68.0977l0.0011811 -0.0011811c45.3992,-45.3981 68.0989,-104.904 68.0989,-164.41z" id="_206528504"/><path class="fil0" d="M726.012 1576.02l-200.326 200.326 -0.0011811 0.0011811c-10.4362,10.4362 -24.1701,15.6579 -37.8815,15.6579 -13.7138,0 -27.4441,-5.22166 -37.8827,-15.6579l-0.0011811 -0.0011811 -40.9051 -40.9051c-10.4398,-10.4374 -15.6579,-24.1701 -15.6579,-37.8827 0,-13.7126 5.2193,-27.4453 15.6579,-37.8839l200.326 -200.326c9.37087,-9.37087 24.5669,-9.37087 33.9378,0 1.66299,1.66299 3.03071,3.51142 4.10315,5.47678 4.47756,7.11024 9.3567,14.0067 14.6327,20.6492 5.34095,6.7252 11.3032,13.3996 17.8878,19.9843 6.58583,6.58583 13.2591,12.548 19.9843,17.889 7.00394,5.563 14.2925,10.6843 21.8138,15.3602 11.2347,6.98977 14.6764,21.7654 7.68662,33 -0.987402,1.5874 -2.13071,3.02008 -3.39803,4.28859l0.0236221 0.0236221zm-234.264 166.388l180.135 -180.135 -1.81063 -1.42559c-8.52993,-6.77481 -16.5874,-13.9299 -24.1087,-21.4512 -7.52127,-7.52127 -14.6764,-15.5799 -21.45,-24.1087l-1.42559 -1.81181 -180.136 180.136c-1.06299,1.06299 -1.59567,2.49685 -1.59567,3.94607 0,1.44921 0.532678,2.88189 1.59567,3.94488l40.9051 40.9051 0.0011811 0.0011811c1.06299,1.06299 2.49685,1.59567 3.94488,1.59567 1.44803,0 2.88071,-0.532678 3.9437,-1.59567l0.0011811 -0.0011811z" id="_206527928"/></g></g><rect class="fil1" height="2048" width="2048"/></svg>