<?xml version="1.0" ?><!DOCTYPE svg  PUBLIC '-//W3C//DTD SVG 1.1//EN'  'http://www.w3.org/Graphics/SVG/1.1/DTD/svg11.dtd'><svg height="2048px" style="shape-rendering:geometricPrecision; text-rendering:geometricPrecision; image-rendering:optimizeQuality; fill-rule:evenodd; clip-rule:evenodd" viewBox="0 0 2048 2048" width="2048px" xml:space="preserve" xmlns="http://www.w3.org/2000/svg" xmlns:xlink="http://www.w3.org/1999/xlink"><defs><style type="text/css">
   <![CDATA[
    .fil1 {fill:none}
    .fil0 {fill:black;fill-rule:nonzero}
   ]]>
  </style></defs><g id="Layer_x0020_1"><g id="_206308136"><path class="fil0" d="M1127.72 1013.12c-10.624,137.614 0.0885827,254.727 45.1111,355.292 45.9331,102.595 128.295,189.333 261.131,264.862 132.835,-75.5292 215.198,-162.266 261.13,-264.862 45.0225,-100.565 55.7351,-217.679 45.1111,-355.292 -150.062,-58.7481 -229.44,-88.1221 -306.241,-88.1221 -76.8012,0 -156.18,29.374 -306.242,88.1221zm1.42441 374.792c-50.413,-112.605 -61.2485,-242.033 -48.0248,-393.691l0.0366142 0.00354331c0.765355,-8.79213 6.3756,-16.8248 15.1512,-20.2536 164.922,-64.6489 249.926,-96.9733 337.655,-96.9733 87.4855,0 172.27,32.1496 336.294,96.4406 8.91615,2.87599 15.6921,10.8638 16.5473,20.7827 13.2236,151.658 2.38819,281.086 -48.0248,393.691 -50.6658,113.17 -140.587,207.946 -285.206,289.348 -2.57835,1.45039 -4.50355,2.41181 -6.42993,3.37323 -4.07244,2.02914 2.95984,-1.62992 -2.05512,0.938977l-0.236221 0.121654 -0.0141732 0.00708662c-6.59528,3.36378 -14.6551,3.62599 -21.7512,0 -1.29331,-0.66378 -1.96772,-1.00748 -2.26654,-1.1563l-0.00708662 0.0153543c0.598819,0.328347 2.27953,1.22599 -0.0354331,0.0708662 -1.92638,-0.960237 -3.84922,-1.91929 -6.42756,-3.37087 -144.619,-81.4016 -234.539,-176.178 -285.206,-289.348zm291.676 292.633c-0.296457,-0.147638 -0.220866,-0.102756 -0.00708662,0.0153543l0.00708662 -0.0153543z" id="_206309144"/><path class="fil0" d="M1335.54 1574.31c13.2543,0 24,10.7457 24,24 0,13.2543 -10.7457,24 -24,24l-873.129 0c-13.2543,0 -24,-10.7457 -24,-24l0 -641.966c0,-7.4256 3.37205,-14.0634 8.6693,-18.4654l9.36733 -9.01182 448.575 -431.285c9.33426,-8.97875 24.0709,-8.87599 33.2811,0.0933072l0.00944883 0.00944883 0.144095 0.13937 411.816 400.023c9.47481,9.21615 9.68505,24.3697 0.468898,33.8445 -9.21615,9.47481 -24.3697,9.68505 -33.8445,0.468898l-395.366 -384.044 -431.898 415.25 -3.22323 3.10158 0 607.842 849.129 0z" id="_206309120"/><path class="fil0" d="M296.475 1014.31c-9.57757,9.11221 -24.7311,8.73426 -33.8433,-0.843308 -9.11221,-9.57757 -8.73426,-24.7311 0.843308,-33.8433l641.684 -609.352c9.2882,-8.83701 23.8193,-8.74725 33,0l542.037 514.725c9.57757,9.11221 9.95552,24.2658 0.843308,33.8433 -9.11221,9.57757 -24.2658,9.95552 -33.8433,0.843308l-525.537 -499.056 -625.184 593.684z" id="_206309048"/></g></g><rect class="fil1" height="2048" width="2048"/></svg>