<?xml version="1.0" encoding="UTF-8"?>
<svg width="60px" height="60px" viewBox="0 0 60 60" version="1.1" xmlns="http://www.w3.org/2000/svg" xmlns:xlink="http://www.w3.org/1999/xlink">
    <!-- Generator: Sketch 45.2 (43514) - http://www.bohemiancoding.com/sketch -->
    <title>Group</title>
    <desc>Created with Sketch.</desc>
    <defs></defs>
    <g id="Page-1" stroke="none" stroke-width="1" fill="none" fill-rule="evenodd">
        <g id="Group" fill="#000000">
            <g id="time-check-save2" fill-rule="nonzero">
                <path d="M51.632,38.332 C51.872,36.903 52,35.452 52,34 C52,27.954 49.92,22.389 46.446,17.968 L49.707,14.707 C50.098,14.316 50.098,13.684 49.707,13.293 L45.707,9.293 C45.316,8.902 44.684,8.902 44.293,9.293 L40.885,12.701 C37.702,10.47 34.002,8.929 30,8.308 L30,6 L34,6 C34.553,6 35,5.553 35,5 L35,1 C35,0.447 34.553,0 34,0 L18,0 C17.447,0 17,0.447 17,1 L17,5 C17,5.553 17.447,6 18,6 L22,6 L22,8.308 C9.555,10.238 0,21.023 0,34 C0,48.337 11.663,60 26,60 C31.125,60 36.038,58.503 40.29,55.693 C42.303,58.306 45.454,60 49,60 C55.065,60 60,55.065 60,49 C60,43.843 56.428,39.516 51.632,38.332 Z M45,11.414 L47.586,14 L45.151,16.435 C44.326,15.536 43.439,14.694 42.496,13.918 L45,11.414 Z M19,2 L33,2 L33,4 L19,4 L19,2 Z M24,6 L28,6 L28,8.085 C27.339,8.034 26.674,8 26,8 C25.326,8 24.661,8.034 24,8.085 L24,6 Z M39.223,54.024 C35.293,56.629 30.74,58 26,58 C12.767,58 2,47.233 2,34 C2,20.767 12.767,10 26,10 C39.233,10 50,20.767 50,34 C50,35.348 49.887,36.697 49.662,38.023 C49.435,38.008 49.216,38 49,38 C48.523,38 48.056,38.041 47.594,38.1 C47.862,36.722 48,35.348 48,34 C48,21.869 38.131,12 26,12 C13.869,12 4,21.869 4,34 C4,46.131 13.869,56 26,56 C30.508,56 34.779,54.655 38.455,52.111 C38.513,52.308 38.582,52.499 38.651,52.691 C38.68,52.773 38.71,52.855 38.741,52.937 C38.873,53.279 39.02,53.613 39.184,53.937 C39.198,53.966 39.208,53.996 39.223,54.024 Z M43.308,39.605 C43.225,39.655 43.142,39.703 43.061,39.756 C42.887,39.868 42.718,39.987 42.551,40.109 C42.468,40.169 42.386,40.23 42.305,40.293 C42.137,40.423 41.971,40.555 41.811,40.694 C41.754,40.743 41.7,40.795 41.645,40.845 C41.076,41.359 40.561,41.929 40.109,42.551 C40.092,42.574 40.074,42.597 40.057,42.62 C39.915,42.819 39.781,43.024 39.652,43.232 C39.621,43.282 39.591,43.332 39.56,43.383 C39.436,43.59 39.317,43.8 39.207,44.016 C39.187,44.055 39.17,44.095 39.15,44.134 C38.835,44.769 38.581,45.438 38.392,46.135 C38.353,46.279 38.314,46.423 38.28,46.569 C38.245,46.723 38.214,46.878 38.186,47.034 C38.15,47.228 38.121,47.424 38.096,47.621 C38.08,47.746 38.062,47.87 38.051,47.996 C38.02,48.327 38,48.662 38,49 C38,49.305 38.016,49.615 38.048,49.95 C34.55,52.602 30.396,54 26,54 C14.972,54 6,45.028 6,34 C6,22.972 14.972,14 26,14 C37.028,14 46,22.972 46,34 C46,35.505 45.813,37.05 45.444,38.598 C45.387,38.617 45.333,38.642 45.277,38.663 C44.586,38.912 43.928,39.228 43.308,39.605 Z M49,58 C45.784,58 42.965,56.299 41.373,53.755 C41.158,53.412 40.967,53.057 40.802,52.693 C40.797,52.683 40.792,52.673 40.787,52.663 C40.62,52.291 40.48,51.909 40.366,51.52 C40.356,51.484 40.348,51.447 40.338,51.411 C40.245,51.081 40.176,50.746 40.122,50.408 C40.114,50.359 40.106,50.309 40.099,50.26 C40.099,50.257 40.099,50.255 40.099,50.252 C40.087,50.168 40.082,50.098 40.073,50.018 C40.033,49.68 40,49.342 40,49 C40,48.719 40.017,48.442 40.042,48.168 C40.052,48.058 40.069,47.95 40.083,47.841 C40.103,47.684 40.126,47.528 40.154,47.374 C40.18,47.235 40.209,47.098 40.241,46.961 C40.267,46.849 40.297,46.738 40.327,46.628 C40.371,46.468 40.416,46.309 40.468,46.153 C40.488,46.095 40.511,46.038 40.531,45.98 C40.835,45.135 41.261,44.342 41.794,43.629 C41.814,43.602 41.834,43.574 41.855,43.547 C41.983,43.379 42.118,43.215 42.257,43.057 C42.281,43.03 42.306,43.003 42.331,42.976 C42.934,42.309 43.637,41.731 44.421,41.265 C44.46,41.242 44.499,41.216 44.539,41.193 C44.708,41.096 44.881,41.007 45.057,40.921 C45.116,40.892 45.174,40.864 45.233,40.836 C45.41,40.754 45.59,40.678 45.773,40.607 C45.828,40.586 45.883,40.567 45.938,40.547 C46.134,40.476 46.331,40.409 46.533,40.351 C47.319,40.128 48.144,40 49,40 C49.235,40 49.466,40.018 49.696,40.035 C49.894,40.053 50.1,40.076 50.326,40.109 C50.327,40.109 50.328,40.109 50.328,40.109 C54.662,40.755 58,44.49 58,49 C58,53.963 53.963,58 49,58 Z" id="Shape"></path>
                <path d="M47,50.586 L44.707,48.293 L43.293,49.707 L46.293,52.707 C46.488,52.902 46.744,53 47,53 C47.256,53 47.512,52.902 47.707,52.707 L54.707,45.707 L53.293,44.293 L47,50.586 Z" id="Shape"></path>
                <path d="M14,31 C12.346,31 11,32.346 11,34 C11,35.654 12.346,37 14,37 C15.654,37 17,35.654 17,34 C17,32.346 15.654,31 14,31 Z M14,35 C13.448,35 13,34.552 13,34 C13,33.448 13.448,33 14,33 C14.552,33 15,33.448 15,34 C15,34.552 14.552,35 14,35 Z" id="Shape"></path>
                <path d="M38,31 C36.346,31 35,32.346 35,34 C35,35.654 36.346,37 38,37 C39.654,37 41,35.654 41,34 C41,32.346 39.654,31 38,31 Z M38,35 C37.448,35 37,34.552 37,34 C37,33.448 37.448,33 38,33 C38.552,33 39,33.448 39,34 C39,34.552 38.552,35 38,35 Z" id="Shape"></path>
                <rect id="Rectangle-path" x="25" y="47" width="2" height="2"></rect>
                <rect id="Rectangle-path" x="29" y="47" width="2" height="2"></rect>
                <rect id="Rectangle-path" x="21" y="47" width="2" height="2"></rect>
                <rect id="Rectangle-path" x="25" y="19" width="2" height="2"></rect>
                <rect id="Rectangle-path" x="21" y="19" width="2" height="2"></rect>
                <rect id="Rectangle-path" x="29" y="19" width="2" height="2"></rect>
            </g>
            <g id="time-check-save" transform="translate(20.000000, 18.000000)" font-size="22" font-family="OpenSans-Bold, Open Sans" font-weight="bold">
                <text id="£">
                    <tspan x="0" y="24">£</tspan>
                </text>
            </g>
        </g>
    </g>
</svg>