<?xml version="1.0" encoding="UTF-8"?>
<svg width="42px" height="34px" viewBox="0 0 42 34" version="1.1" xmlns="http://www.w3.org/2000/svg" xmlns:xlink="http://www.w3.org/1999/xlink">
    <!-- Generator: Sketch 45.2 (43514) - http://www.bohemiancoding.com/sketch -->
    <title>Group 2</title>
    <desc>Created with Sketch.</desc>
    <defs></defs>
    <g id="icons" stroke="none" stroke-width="1" fill="none" fill-rule="evenodd">
        <g id="Desktop" transform="translate(-401.000000, -20.000000)">
            <g id="Group-2" transform="translate(401.000000, 20.000000)">
                <path d="M21,34 C11.6111593,34 4,26.3888407 4,17 C4,7.61115925 11.6111593,0 21,0 C30.3888407,0 38,7.61115925 38,17 C38,26.3888407 30.3888407,34 21,34 Z M21,29.7806359 C28.0585503,29.7806359 33.7806359,24.0585503 33.7806359,17 C33.7806359,9.9414497 28.0585503,4.21936411 21,4.21936411 C13.9414497,4.21936411 8.21936411,9.9414497 8.21936411,17 C8.21936411,24.0585503 13.9414497,29.7806359 21,29.7806359 Z" id="Combined-Shape" fill="#FF0000"></path>
                <rect id="Rectangle" fill="#0F1D8F" x="0" y="13" width="42" height="7.82000017"></rect>
            </g>
        </g>
    </g>
</svg>