<?xml version="1.0" encoding="UTF-8"?>
<svg width="25px" height="23px" viewBox="0 0 25 23" version="1.1" xmlns="http://www.w3.org/2000/svg" xmlns:xlink="http://www.w3.org/1999/xlink">
    <!-- Generator: Sketch 46.2 (44496) - http://www.bohemiancoding.com/sketch -->
    <title>underground</title>
    <desc>Created with Sketch.</desc>
    <defs></defs>
    <g id="icons" stroke="none" stroke-width="1" fill="none" fill-rule="evenodd">
        <g id="Artboard" transform="translate(0.000000, -61.000000)">
            <g id="underground" transform="translate(-1.000000, 61.000000)">
                <path d="M13.5,22.5591186 C7.39221743,22.5591186 2.44088136,17.6077826 2.44088136,11.5 C2.44088136,5.39221743 7.39221743,0.440881361 13.5,0.440881361 C19.6077826,0.440881361 24.5591186,5.39221743 24.5591186,11.5 C24.5591186,17.6077826 19.6077826,22.5591186 13.5,22.5591186 Z M13.5,19.8142687 C18.0918438,19.8142687 21.8142687,16.0918438 21.8142687,11.5 C21.8142687,6.90815617 18.0918438,3.18573126 13.5,3.18573126 C8.90815617,3.18573126 5.18573126,6.90815617 5.18573126,11.5 C5.18573126,16.0918438 8.90815617,19.8142687 13.5,19.8142687 Z" id="Combined-Shape" fill="#FF0000"></path>
                <rect id="Rectangle" fill="#0F1D8F" x="0.892712839" y="9.23256647" width="25.0714637" height="5.53486705"></rect>
            </g>
        </g>
    </g>
</svg>